<svg width="470" height="340" viewBox="0 0 470 340" fill="none" xmlns="http://www.w3.org/2000/svg">
<rect width="470" height="340" rx="5" fill="#B9BCCC"/>
<path d="M77.2 69L74.84 63.4H64.08L61.72 69H56.08L67.56 42.32H71.64L82.8 69H77.2ZM65.72 59.16H73.32L69.52 49.56L65.72 59.16ZM85.195 69V51.68H90.075V57.8H96.875V51.68H101.755V69H96.875V61.96H90.075V69H85.195ZM106.406 51.68H111.286V58.4L117.766 51.68H123.846L116.006 59.4L124.246 69H118.006L112.006 61.84L111.286 62.56V69H106.406V51.68ZM138.535 63.44L143.015 64.16C142.829 64.64 142.575 65.12 142.255 65.6C141.962 66.0533 141.495 66.6267 140.855 67.32C140.215 67.9867 139.349 68.5333 138.255 68.96C137.162 69.36 135.909 69.56 134.495 69.56C131.775 69.56 129.562 68.7467 127.855 67.12C126.042 65.4133 125.135 63.16 125.135 60.36C125.135 57.5867 126.015 55.32 127.775 53.56C129.429 51.9333 131.602 51.12 134.295 51.12C137.229 51.12 139.482 52.0667 141.055 53.96C142.442 55.6133 143.135 57.88 143.135 60.76V61.16H130.175C130.175 62.3333 130.455 63.3067 131.015 64.08C131.815 65.1733 132.975 65.72 134.495 65.72C136.309 65.72 137.655 64.96 138.535 63.44ZM130.335 58.04H138.535C138.349 56.92 137.855 56.0667 137.055 55.48C136.282 54.8667 135.402 54.56 134.415 54.56C133.455 54.56 132.575 54.8667 131.775 55.48C131.002 56.0933 130.522 56.9467 130.335 58.04ZM159.314 55.84H154.514V69H149.634V55.84H144.834V51.68H159.314V55.84ZM175.155 53.92V51.68H180.035V69H175.155V66.76C173.848 68.6267 172.075 69.56 169.835 69.56C167.221 69.56 165.088 68.6667 163.435 66.88C161.808 65.0933 160.995 62.9067 160.995 60.32C160.995 57.7067 161.795 55.52 163.395 53.76C164.995 52 167.061 51.12 169.595 51.12C172.101 51.12 173.955 52.0533 175.155 53.92ZM174.275 56.84C173.368 55.9067 172.221 55.44 170.835 55.44C169.448 55.44 168.301 55.9067 167.395 56.84C166.488 57.7733 166.035 58.9333 166.035 60.32C166.035 61.7067 166.488 62.88 167.395 63.84C168.301 64.7733 169.448 65.24 170.835 65.24C172.221 65.24 173.368 64.7733 174.275 63.84C175.181 62.88 175.635 61.7067 175.635 60.32C175.635 58.9333 175.181 57.7733 174.275 56.84ZM195.623 51.68H210.023V64.84H212.583V74.04H208.183V69H196.263V74.04H191.863V64.84C193.223 64.76 194.25 64.0267 194.943 62.64C195.396 61.6533 195.623 60.1733 195.623 58.2V51.68ZM205.143 64.84V55.84H200.023V59.68C200.023 62.0267 199.383 63.7467 198.103 64.84H205.143ZM231.805 51.68V69H226.925V55.84H222.205V62.2C222.205 64.44 221.658 66.1467 220.565 67.32C219.472 68.5467 217.912 69.16 215.885 69.16C215.352 69.16 214.872 69.1067 214.445 69V64.84C214.765 64.8933 215.018 64.92 215.205 64.92C216.085 64.92 216.752 64.64 217.205 64.08C217.605 63.6 217.805 62.8667 217.805 61.88V51.68H231.805ZM234.925 69L240.045 62.52C238.925 62.36 237.992 61.9067 237.245 61.16C236.338 60.2533 235.885 59.0267 235.885 57.48C235.885 55.6933 236.578 54.24 237.965 53.12C239.192 52.16 240.978 51.68 243.325 51.68H250.205V69H245.325V62.92H244.765L240.525 69H234.925ZM245.325 59.4V55.52H243.205C242.458 55.52 241.912 55.68 241.565 56C241.138 56.4 240.925 56.9067 240.925 57.52C240.925 58.16 241.138 58.64 241.565 58.96C241.938 59.2533 242.485 59.4 243.205 59.4H245.325ZM71.36 92.16V96.96C70.2667 95.9467 68.9333 95.44 67.36 95.44C65.8133 95.44 64.6133 95.92 63.76 96.88C62.9067 97.8133 62.48 98.96 62.48 100.32C62.48 101.733 62.9467 102.907 63.88 103.84C64.84 104.773 66.0533 105.24 67.52 105.24C68.96 105.24 70.24 104.733 71.36 103.72V108.48C69.92 109.2 68.4267 109.56 66.88 109.56C64.1867 109.56 61.96 108.72 60.2 107.04C58.36 105.307 57.44 103.093 57.44 100.4C57.44 97.4667 58.44 95.12 60.44 93.36C62.12 91.8667 64.2 91.12 66.68 91.12C68.36 91.12 69.92 91.4667 71.36 92.16ZM77.0788 93.56C78.8388 91.9333 81.1721 91.12 84.0788 91.12C86.9854 91.12 89.3188 91.9333 91.0788 93.56C93.0254 95.32 93.9988 97.5867 93.9988 100.36C93.9988 103.107 93.0254 105.36 91.0788 107.12C89.3188 108.747 86.9854 109.56 84.0788 109.56C81.1721 109.56 78.8388 108.747 77.0788 107.12C75.1321 105.36 74.1588 103.107 74.1588 100.36C74.1588 97.5867 75.1321 95.32 77.0788 93.56ZM80.5988 103.8C81.5321 104.76 82.6921 105.24 84.0788 105.24C85.4654 105.24 86.6254 104.76 87.5588 103.8C88.4921 102.84 88.9588 101.693 88.9588 100.36C88.9588 99 88.4921 97.84 87.5588 96.88C86.6254 95.92 85.4654 95.44 84.0788 95.44C82.6921 95.44 81.5321 95.92 80.5988 96.88C79.6654 97.84 79.1988 99 79.1988 100.36C79.1988 101.693 79.6654 102.84 80.5988 103.8ZM110.173 95.84H105.373V109H100.493V95.84H95.6931V91.68H110.173V95.84ZM117.614 106.76V118.16H112.734V91.68H117.614V93.92C118.921 92.0533 120.801 91.12 123.254 91.12C125.654 91.12 127.627 91.8933 129.174 93.44C130.907 95.1733 131.774 97.4667 131.774 100.32C131.774 103.253 130.867 105.587 129.054 107.32C127.454 108.813 125.494 109.56 123.174 109.56C120.854 109.56 119.001 108.627 117.614 106.76ZM121.934 95.44C120.681 95.44 119.627 95.8267 118.774 96.6C117.681 97.5333 117.134 98.7733 117.134 100.32C117.134 101.893 117.667 103.147 118.734 104.08C119.614 104.853 120.681 105.24 121.934 105.24C123.241 105.24 124.334 104.827 125.214 104C126.227 103.067 126.734 101.84 126.734 100.32C126.734 98.8267 126.241 97.6133 125.254 96.68C124.347 95.8533 123.241 95.44 121.934 95.44ZM135.187 118.16L141.547 106.4L133.307 91.68H138.987L144.347 101.52L149.147 91.68H154.667L140.707 118.16H135.187ZM158.201 91.68H172.601V104.84H175.161V114.04H170.761V109H158.841V114.04H154.441V104.84C155.801 104.76 156.828 104.027 157.521 102.64C157.975 101.653 158.201 100.173 158.201 98.2V91.68ZM167.721 104.84V95.84H162.601V99.68C162.601 102.027 161.961 103.747 160.681 104.84H167.721ZM177.812 109V91.68H182.692V97.8H189.492V91.68H194.372V109H189.492V101.96H182.692V109H177.812ZM199.023 91.68H203.903V102.36L211.903 91.68H216.783V109H211.903V98.32L203.903 109H199.023V91.68ZM231.246 109V103.08C229.859 103.347 228.499 103.48 227.166 103.48C225.059 103.48 223.446 102.947 222.326 101.88C221.286 100.893 220.766 99.5333 220.766 97.8V91.68H225.646V96.8C225.646 97.68 225.846 98.3067 226.246 98.68C226.699 99.1067 227.526 99.32 228.726 99.32C229.526 99.32 230.366 99.24 231.246 99.08V91.68H236.126V109H231.246ZM253.301 103.44L257.781 104.16C257.594 104.64 257.341 105.12 257.021 105.6C256.728 106.053 256.261 106.627 255.621 107.32C254.981 107.987 254.114 108.533 253.021 108.96C251.928 109.36 250.674 109.56 249.261 109.56C246.541 109.56 244.328 108.747 242.621 107.12C240.808 105.413 239.901 103.16 239.901 100.36C239.901 97.5867 240.781 95.32 242.541 93.56C244.194 91.9333 246.368 91.12 249.061 91.12C251.994 91.12 254.248 92.0667 255.821 93.96C257.208 95.6133 257.901 97.88 257.901 100.76V101.16H244.941C244.941 102.333 245.221 103.307 245.781 104.08C246.581 105.173 247.741 105.72 249.261 105.72C251.074 105.72 252.421 104.96 253.301 103.44ZM245.101 98.04H253.301C253.114 96.92 252.621 96.0667 251.821 95.48C251.048 94.8667 250.168 94.56 249.181 94.56C248.221 94.56 247.341 94.8667 246.541 95.48C245.768 96.0933 245.288 96.9467 245.101 98.04ZM274.719 92.16V96.96C273.626 95.9467 272.293 95.44 270.719 95.44C269.173 95.44 267.973 95.92 267.119 96.88C266.266 97.8133 265.839 98.96 265.839 100.32C265.839 101.733 266.306 102.907 267.239 103.84C268.199 104.773 269.413 105.24 270.879 105.24C272.319 105.24 273.599 104.733 274.719 103.72V108.48C273.279 109.2 271.786 109.56 270.239 109.56C267.546 109.56 265.319 108.72 263.559 107.04C261.719 105.307 260.799 103.093 260.799 100.4C260.799 97.4667 261.799 95.12 263.799 93.36C265.479 91.8667 267.559 91.12 270.039 91.12C271.719 91.12 273.279 91.4667 274.719 92.16ZM291.736 95.84H286.936V109H282.056V95.84H277.256V91.68H291.736V95.84ZM294.297 91.68H301.937C303.777 91.68 305.15 92.0267 306.057 92.72C307.177 93.5733 307.737 94.7067 307.737 96.12C307.737 96.8667 307.523 97.5733 307.097 98.24C306.697 98.88 306.11 99.36 305.337 99.68C306.19 99.84 306.95 100.213 307.617 100.8C308.497 101.6 308.937 102.68 308.937 104.04C308.937 105.667 308.323 106.947 307.097 107.88C306.083 108.627 304.79 109 303.217 109H294.297V91.68ZM299.177 98.56H301.417C301.923 98.56 302.35 98.4533 302.697 98.24C303.123 97.9733 303.337 97.5733 303.337 97.04C303.337 96.48 303.15 96.0667 302.777 95.8C302.51 95.6133 302.03 95.52 301.337 95.52H299.177V98.56ZM299.177 105.16H301.457C302.283 105.16 302.883 105.013 303.257 104.72C303.683 104.4 303.897 103.933 303.897 103.32C303.897 102.76 303.683 102.347 303.257 102.08C302.883 101.813 302.323 101.68 301.577 101.68H299.177V105.16ZM325.819 93.92V91.68H330.699V109H325.819V106.76C324.512 108.627 322.739 109.56 320.499 109.56C317.885 109.56 315.752 108.667 314.099 106.88C312.472 105.093 311.659 102.907 311.659 100.32C311.659 97.7067 312.459 95.52 314.059 93.76C315.659 92 317.725 91.12 320.259 91.12C322.765 91.12 324.619 92.0533 325.819 93.92ZM324.939 96.84C324.032 95.9067 322.885 95.44 321.499 95.44C320.112 95.44 318.965 95.9067 318.059 96.84C317.152 97.7733 316.699 98.9333 316.699 100.32C316.699 101.707 317.152 102.88 318.059 103.84C318.965 104.773 320.112 105.24 321.499 105.24C322.885 105.24 324.032 104.773 324.939 103.84C325.845 102.88 326.299 101.707 326.299 100.32C326.299 98.9333 325.845 97.7733 324.939 96.84Z" fill="#3E3E3E"/>
<g filter="url(#filter0_d_426_1119)">
<rect x="57" y="237" width="260" height="60" rx="5" fill="#3E3E3E"/>
</g>
<path d="M124.756 264.73L123.532 263.128C124.576 262.192 125.806 261.724 127.222 261.724C128.434 261.724 129.394 262.012 130.102 262.588C130.81 263.152 131.164 263.908 131.164 264.856C131.164 265.996 130.672 266.842 129.688 267.394C130.408 267.574 130.96 267.946 131.344 268.51C131.728 269.074 131.92 269.734 131.92 270.49C131.92 271.618 131.476 272.53 130.588 273.226C129.7 273.922 128.554 274.27 127.15 274.27C125.074 274.27 123.568 273.514 122.632 272.002L124.162 270.544C124.426 271.144 124.84 271.594 125.404 271.894C125.98 272.182 126.58 272.326 127.204 272.326C127.96 272.326 128.53 272.152 128.914 271.804C129.31 271.456 129.508 271.036 129.508 270.544C129.508 269.32 128.632 268.708 126.88 268.708H125.8V266.692H126.88C127.492 266.692 127.978 266.56 128.338 266.296C128.698 266.02 128.878 265.642 128.878 265.162C128.878 264.718 128.734 264.376 128.446 264.136C128.158 263.896 127.732 263.776 127.168 263.776C126.136 263.776 125.332 264.094 124.756 264.73ZM142.758 274L141.696 271.48H136.854L135.792 274H133.254L138.42 261.994H140.256L145.278 274H142.758ZM137.592 269.572H141.012L139.302 265.252L137.592 269.572ZM147.58 261.994H157.084V274H154.744V264.01H149.92V274H147.58V261.994ZM161.92 263.488C163.12 262.312 164.662 261.724 166.546 261.724C168.43 261.724 169.966 262.312 171.154 263.488C172.354 264.664 172.954 266.17 172.954 268.006C172.954 269.842 172.354 271.348 171.154 272.524C169.966 273.688 168.43 274.27 166.546 274.27C164.662 274.27 163.12 273.688 161.92 272.524C160.732 271.348 160.138 269.842 160.138 268.006C160.138 266.17 160.732 264.664 161.92 263.488ZM163.666 270.994C164.41 271.762 165.37 272.146 166.546 272.146C167.722 272.146 168.682 271.762 169.426 270.994C170.17 270.214 170.542 269.218 170.542 268.006C170.542 266.794 170.164 265.798 169.408 265.018C168.664 264.238 167.71 263.848 166.546 263.848C165.382 263.848 164.422 264.238 163.666 265.018C162.922 265.798 162.55 266.794 162.55 268.006C162.55 269.218 162.922 270.214 163.666 270.994ZM177.163 261.994H185.335V274H182.995V264.01H179.503V269.338C179.503 269.794 179.497 270.136 179.485 270.364C179.473 270.592 179.431 270.916 179.359 271.336C179.287 271.756 179.155 272.128 178.963 272.452C178.771 272.764 178.519 273.052 178.207 273.316C177.583 273.844 176.785 274.108 175.813 274.108C175.477 274.108 175.147 274.072 174.823 274V271.984C175.063 272.056 175.285 272.092 175.489 272.092C175.921 272.092 176.281 271.948 176.569 271.66C176.761 271.468 176.899 271.204 176.983 270.868C177.079 270.532 177.133 270.244 177.145 270.004C177.157 269.764 177.163 269.386 177.163 268.87V261.994ZM191.309 261.994V266.638H196.385V261.994H198.725V274H196.385V268.654H191.309V274H188.969V261.994H191.309ZM202.367 261.994H204.707V269.986L211.295 261.994H212.951V274H210.611V265.972L204.023 274H202.367V261.994ZM223.071 264.01H220.371V274H218.031V264.01H215.331V261.994H223.071V264.01ZM225.454 274V261.994H227.794V266.692H229.666C230.914 266.692 231.898 267.022 232.618 267.682C233.362 268.366 233.734 269.26 233.734 270.364C233.734 271.18 233.518 271.9 233.086 272.524C232.414 273.508 231.28 274 229.684 274H225.454ZM227.794 268.708V271.984H229.162C230.602 271.984 231.322 271.444 231.322 270.364C231.322 269.908 231.16 269.518 230.836 269.194C230.524 268.87 229.978 268.708 229.198 268.708H227.794Z" fill="white"/>
<path d="M293.707 267.707C294.098 267.317 294.098 266.683 293.707 266.293L287.343 259.929C286.953 259.538 286.319 259.538 285.929 259.929C285.538 260.319 285.538 260.953 285.929 261.343L291.586 267L285.929 272.657C285.538 273.047 285.538 273.681 285.929 274.071C286.319 274.462 286.953 274.462 287.343 274.071L293.707 267.707ZM279 268H293V266H279V268Z" fill="white"/>
<defs>
<filter id="filter0_d_426_1119" x="57" y="237" width="260" height="64" filterUnits="userSpaceOnUse" color-interpolation-filters="sRGB">
<feFlood flood-opacity="0" result="BackgroundImageFix"/>
<feColorMatrix in="SourceAlpha" type="matrix" values="0 0 0 0 0 0 0 0 0 0 0 0 0 0 0 0 0 0 127 0" result="hardAlpha"/>
<feOffset dy="4"/>
<feComposite in2="hardAlpha" operator="out"/>
<feColorMatrix type="matrix" values="0 0 0 0 0.123177 0 0 0 0 0.146232 0 0 0 0 0.179167 0 0 0 1 0"/>
<feBlend mode="normal" in2="BackgroundImageFix" result="effect1_dropShadow_426_1119"/>
<feBlend mode="normal" in="SourceGraphic" in2="effect1_dropShadow_426_1119" result="shape"/>
</filter>
</defs>
</svg>
