<svg width="415" height="144" viewBox="0 0 415 144" fill="none" xmlns="http://www.w3.org/2000/svg">
<rect width="415" height="144" rx="15" fill="#C83642"/>
<path d="M72.1988 31.36L69.5188 28.76C70.5054 27.4533 71.6521 26.4933 72.9588 25.88C74.2921 25.2133 75.9054 24.88 77.7988 24.88C80.4654 24.88 82.5321 25.5867 83.9988 27C85.2788 28.2533 85.9188 29.8133 85.9188 31.68C85.9188 32.96 85.6254 34.0667 85.0388 35C84.4788 35.96 83.6788 36.7333 82.6388 37.32C84.1054 37.6933 85.3054 38.48 86.2388 39.68C87.1454 40.8267 87.5988 42.3333 87.5988 44.2C87.5988 46.6 86.7054 48.5867 84.9188 50.16C83.1054 51.7067 80.7054 52.48 77.7188 52.48C75.1854 52.48 72.9988 51.7867 71.1588 50.4C69.7188 49.28 68.5854 47.84 67.7588 46.08L71.3588 44.24C71.8921 45.6 72.7188 46.68 73.8388 47.48C75.0121 48.3067 76.4788 48.72 78.2388 48.72C79.9988 48.72 81.3588 48.24 82.3188 47.28C83.1721 46.4267 83.5988 45.3333 83.5988 44C83.5988 42.6133 83.0788 41.5733 82.0388 40.88C81.0521 40.1867 79.4388 39.84 77.1988 39.84H74.7988V36H76.9588C78.6654 36 79.9454 35.64 80.7988 34.92C81.5988 34.2533 81.9988 33.3467 81.9988 32.2C81.9988 31 81.5721 30.08 80.7188 29.44C80.0254 28.9067 78.9988 28.64 77.6388 28.64C76.3588 28.64 75.2788 28.8933 74.3988 29.4C73.5454 29.88 72.8121 30.5333 72.1988 31.36ZM104.331 37.12V35.16H108.251V52H104.331V50.24C103.025 51.76 101.345 52.52 99.2913 52.52C96.8113 52.52 94.8246 51.64 93.3313 49.88C91.8646 48.12 91.1313 46.0133 91.1313 43.56C91.1313 40.8933 91.9179 38.76 93.4913 37.16C95.0913 35.5333 97.0379 34.72 99.3313 34.72C101.438 34.72 103.105 35.52 104.331 37.12ZM99.8112 38.24C98.4246 38.24 97.2913 38.76 96.4113 39.8C95.5579 40.84 95.1313 42.12 95.1313 43.64C95.1313 45.1333 95.5579 46.4 96.4113 47.44C97.2913 48.48 98.4246 49 99.8112 49C101.145 49 102.265 48.5333 103.171 47.6C104.105 46.6667 104.571 45.36 104.571 43.68C104.571 41.9467 104.105 40.6133 103.171 39.68C102.265 38.72 101.145 38.24 99.8112 38.24ZM113.222 35.16H127.862V52H123.942V38.76H117.142V52H113.222V35.16ZM136.752 50.04V61.16H132.832V35.16H136.752V37C138.032 35.48 139.698 34.72 141.752 34.72C144.045 34.72 145.978 35.5333 147.552 37.16C149.152 38.76 149.952 40.8667 149.952 43.48C149.952 46.1733 149.125 48.36 147.472 50.04C145.818 51.6933 143.925 52.52 141.792 52.52C139.792 52.52 138.112 51.6933 136.752 50.04ZM141.272 38.24C139.938 38.24 138.805 38.72 137.872 39.68C136.965 40.6133 136.512 41.9467 136.512 43.68C136.512 45.36 136.965 46.6667 137.872 47.6C138.805 48.5333 139.938 49 141.272 49C142.658 49 143.778 48.48 144.632 47.44C145.512 46.4 145.952 45.1333 145.952 43.64C145.952 42.12 145.512 40.84 144.632 39.8C143.778 38.76 142.658 38.24 141.272 38.24ZM155.723 37.24C157.456 35.56 159.603 34.72 162.163 34.72C164.723 34.72 166.856 35.56 168.563 37.24C170.296 38.8933 171.163 41.0133 171.163 43.6C171.163 46.16 170.296 48.2933 168.563 50C166.856 51.68 164.723 52.52 162.163 52.52C159.603 52.52 157.456 51.68 155.723 50C154.016 48.2933 153.163 46.16 153.163 43.6C153.163 41.0133 154.016 38.8933 155.723 37.24ZM158.523 47.56C159.429 48.52 160.643 49 162.163 49C163.683 49 164.896 48.52 165.803 47.56C166.709 46.5733 167.163 45.2667 167.163 43.64C167.163 41.8533 166.669 40.5067 165.683 39.6C164.723 38.6933 163.549 38.24 162.163 38.24C160.776 38.24 159.589 38.6933 158.603 39.6C157.643 40.5067 157.163 41.8533 157.163 43.64C157.163 45.2667 157.616 46.5733 158.523 47.56ZM188.293 35.92V40.32C186.88 38.9333 185.293 38.24 183.533 38.24C182.04 38.24 180.8 38.7333 179.813 39.72C178.853 40.68 178.373 41.9733 178.373 43.6C178.373 45.28 178.88 46.6267 179.893 47.64C180.853 48.5467 182.04 49 183.453 49C185.4 49 187.013 48.28 188.293 46.84V51.2C186.88 52.08 185.173 52.52 183.173 52.52C180.48 52.52 178.347 51.6933 176.773 50.04C175.173 48.3867 174.373 46.28 174.373 43.72C174.373 41.08 175.227 38.9067 176.933 37.2C178.587 35.5467 180.84 34.72 183.693 34.72C185.32 34.72 186.853 35.12 188.293 35.92ZM192.05 35.16H195.97V44.72L207.49 33.64V52H203.57V42.2L192.05 53.28V35.16ZM224.041 38.76H219.121V52H215.201V38.76H210.281V35.16H224.041V38.76ZM226.855 52V35.16H230.775V41.12H233.015C233.735 41.12 234.322 41.1467 234.775 41.2C235.228 41.2267 235.775 41.3733 236.415 41.64C237.055 41.9067 237.615 42.3067 238.095 42.84C238.975 43.8267 239.415 45.0533 239.415 46.52C239.415 48.2 238.908 49.5467 237.895 50.56C237.442 51.0133 236.895 51.36 236.255 51.6C235.642 51.8133 235.122 51.9333 234.695 51.96C234.295 51.9867 233.722 52 232.975 52H226.855ZM230.775 48.64H232.575C233.535 48.64 234.215 48.52 234.615 48.28C235.202 47.8533 235.495 47.28 235.495 46.56C235.495 45.8133 235.215 45.2533 234.655 44.88C234.228 44.6133 233.548 44.48 232.615 44.48H230.775V48.64ZM252.207 35.16H266.847V52H262.927V38.76H256.127V52H252.207V35.16ZM275.736 50.04V61.16H271.816V35.16H275.736V37C277.016 35.48 278.683 34.72 280.736 34.72C283.029 34.72 284.963 35.5333 286.536 37.16C288.136 38.76 288.936 40.8667 288.936 43.48C288.936 46.1733 288.109 48.36 286.456 50.04C284.803 51.6933 282.909 52.52 280.776 52.52C278.776 52.52 277.096 51.6933 275.736 50.04ZM280.256 38.24C278.923 38.24 277.789 38.72 276.856 39.68C275.949 40.6133 275.496 41.9467 275.496 43.68C275.496 45.36 275.949 46.6667 276.856 47.6C277.789 48.5333 278.923 49 280.256 49C281.643 49 282.763 48.48 283.616 47.44C284.496 46.4 284.936 45.1333 284.936 43.64C284.936 42.12 284.496 40.84 283.616 39.8C282.763 38.76 281.643 38.24 280.256 38.24ZM305.347 37.12V35.16H309.267V52H305.347V50.24C304.04 51.76 302.36 52.52 300.307 52.52C297.827 52.52 295.84 51.64 294.347 49.88C292.88 48.12 292.147 46.0133 292.147 43.56C292.147 40.8933 292.934 38.76 294.507 37.16C296.107 35.5333 298.054 34.72 300.347 34.72C302.454 34.72 304.12 35.52 305.347 37.12ZM300.827 38.24C299.44 38.24 298.307 38.76 297.427 39.8C296.574 40.84 296.147 42.12 296.147 43.64C296.147 45.1333 296.574 46.4 297.427 47.44C298.307 48.48 299.44 49 300.827 49C302.16 49 303.28 48.5333 304.187 47.6C305.12 46.6667 305.587 45.36 305.587 43.68C305.587 41.9467 305.12 40.6133 304.187 39.68C303.28 38.72 302.16 38.24 300.827 38.24ZM314.238 35.16H318.158V44.72L329.678 33.64V52H325.758V42.2L314.238 53.28V35.16ZM315.518 27.88L318.718 26.96C319.224 28.6933 320.318 29.56 321.998 29.56C323.651 29.56 324.744 28.6933 325.278 26.96L328.478 27.88C328.051 29.4 327.184 30.5733 325.878 31.4C324.598 32.2 323.304 32.6 321.998 32.6C320.691 32.6 319.384 32.2 318.078 31.4C316.798 30.5733 315.944 29.4 315.518 27.88ZM347.668 35.92V40.32C346.255 38.9333 344.668 38.24 342.908 38.24C341.415 38.24 340.175 38.7333 339.188 39.72C338.228 40.68 337.748 41.9733 337.748 43.6C337.748 45.28 338.255 46.6267 339.268 47.64C340.228 48.5467 341.415 49 342.828 49C344.775 49 346.388 48.28 347.668 46.84V51.2C346.255 52.08 344.548 52.52 342.548 52.52C339.855 52.52 337.722 51.6933 336.148 50.04C334.548 48.3867 333.748 46.28 333.748 43.72C333.748 41.08 334.602 38.9067 336.308 37.2C337.962 35.5467 340.215 34.72 343.068 34.72C344.695 34.72 346.228 35.12 347.668 35.92ZM45.605 86.16H49.525V95.72L61.045 84.64V103H57.125V93.2L45.605 104.28V86.16ZM79.8356 86.16V103H75.9156V89.76H70.9556V96.44C70.9556 98.52 70.4223 100.133 69.3556 101.28C67.9956 102.8 66.1556 103.373 63.8356 103V99.4C64.9823 99.6667 65.9023 99.4133 66.5956 98.64C66.9956 98.16 67.1956 97.4267 67.1956 96.44V86.16H79.8356ZM84.7847 86.16H88.7047V95.72L100.225 84.64V103H96.3047V93.2L84.7847 104.28V86.16ZM116.191 88.24C117.925 86.56 120.071 85.72 122.631 85.72C125.191 85.72 127.325 86.56 129.031 88.24C130.765 89.8933 131.631 92.0133 131.631 94.6C131.631 97.16 130.765 99.2933 129.031 101C127.325 102.68 125.191 103.52 122.631 103.52C120.071 103.52 117.925 102.68 116.191 101C114.485 99.2933 113.631 97.16 113.631 94.6C113.631 92.0133 114.485 89.8933 116.191 88.24ZM118.991 98.56C119.898 99.52 121.111 100 122.631 100C124.151 100 125.365 99.52 126.271 98.56C127.178 97.5733 127.631 96.2667 127.631 94.64C127.631 92.8533 127.138 91.5067 126.151 90.6C125.191 89.6933 124.018 89.24 122.631 89.24C121.245 89.24 120.058 89.6933 119.071 90.6C118.111 91.5067 117.631 92.8533 117.631 94.64C117.631 96.2667 118.085 97.5733 118.991 98.56ZM148.442 74.6H152.442C152.149 75.9867 151.536 77.1867 150.602 78.2C149.669 79.2133 148.522 79.9067 147.162 80.28L144.522 81C143.829 81.1867 143.296 81.3467 142.922 81.48C142.549 81.6133 142.082 81.8667 141.522 82.24C140.989 82.5867 140.536 83.0133 140.162 83.52C139.282 84.6933 138.816 86.2133 138.762 88.08H138.802C139.976 86.5067 141.882 85.72 144.522 85.72C146.896 85.72 148.856 86.52 150.402 88.12C152.029 89.8 152.842 91.9333 152.842 94.52C152.842 97.1333 151.976 99.2933 150.242 101C148.536 102.68 146.402 103.52 143.842 103.52C141.282 103.52 139.229 102.773 137.682 101.28C136.829 100.48 136.176 99.4933 135.722 98.32C135.269 97.1467 135.002 96.1867 134.922 95.44C134.869 94.6667 134.842 93.7333 134.842 92.64C134.842 87.4133 135.696 83.56 137.402 81.08C138.682 79.1867 140.362 77.9867 142.442 77.48L145.242 76.8C147.082 76.3467 148.149 75.6133 148.442 74.6ZM140.202 98.56C141.109 99.52 142.322 100 143.842 100C145.362 100 146.576 99.52 147.482 98.56C148.389 97.5733 148.842 96.2667 148.842 94.64C148.842 92.8533 148.349 91.5067 147.362 90.6C146.402 89.6933 145.229 89.24 143.842 89.24C142.456 89.24 141.269 89.6933 140.282 90.6C139.322 91.5067 138.842 92.8533 138.842 94.64C138.842 96.2667 139.296 97.5733 140.202 98.56ZM160.853 101.04V112.16H156.933V86.16H160.853V88C162.133 86.48 163.8 85.72 165.853 85.72C168.146 85.72 170.08 86.5333 171.653 88.16C173.253 89.76 174.053 91.8667 174.053 94.48C174.053 97.1733 173.226 99.36 171.573 101.04C169.92 102.693 168.026 103.52 165.893 103.52C163.893 103.52 162.213 102.693 160.853 101.04ZM165.373 89.24C164.04 89.24 162.906 89.72 161.973 90.68C161.066 91.6133 160.613 92.9467 160.613 94.68C160.613 96.36 161.066 97.6667 161.973 98.6C162.906 99.5333 164.04 100 165.373 100C166.76 100 167.88 99.48 168.733 98.44C169.613 97.4 170.053 96.1333 170.053 94.64C170.053 93.12 169.613 91.84 168.733 90.8C167.88 89.76 166.76 89.24 165.373 89.24ZM190.464 88.12V86.16H194.384V103H190.464V101.24C189.157 102.76 187.477 103.52 185.424 103.52C182.944 103.52 180.957 102.64 179.464 100.88C177.997 99.12 177.264 97.0133 177.264 94.56C177.264 91.8933 178.051 89.76 179.624 88.16C181.224 86.5333 183.171 85.72 185.464 85.72C187.571 85.72 189.237 86.52 190.464 88.12ZM185.944 89.24C184.557 89.24 183.424 89.76 182.544 90.8C181.691 91.84 181.264 93.12 181.264 94.64C181.264 96.1333 181.691 97.4 182.544 98.44C183.424 99.48 184.557 100 185.944 100C187.277 100 188.397 99.5333 189.304 98.6C190.237 97.6667 190.704 96.36 190.704 94.68C190.704 92.9467 190.237 91.6133 189.304 90.68C188.397 89.72 187.277 89.24 185.944 89.24ZM210.955 89.76H206.035V103H202.115V89.76H197.195V86.16H210.955V89.76ZM213.769 103V86.16H217.689V92.4H224.649V86.16H228.569V103H224.649V96H217.689V103H213.769ZM232.295 112.16L238.495 100.36L231.295 86.16H236.015L240.815 96L245.695 86.16H250.095L236.695 112.16H232.295ZM256.752 92.4H259.432C259.698 90.8267 260.432 89.4267 261.632 88.2C263.285 86.5467 265.378 85.72 267.912 85.72C270.418 85.72 272.512 86.56 274.192 88.24C275.898 89.8933 276.752 92.0133 276.752 94.6C276.752 97.16 275.898 99.2933 274.192 101C272.512 102.68 270.418 103.52 267.912 103.52C265.245 103.52 263.085 102.627 261.432 100.84C260.205 99.5067 259.512 97.8933 259.352 96H256.752V103H252.832V86.16H256.752V92.4ZM271.352 90.6C270.418 89.6933 269.272 89.24 267.912 89.24C266.552 89.24 265.405 89.6933 264.472 90.6C263.538 91.5067 263.072 92.8533 263.072 94.64C263.072 96.4267 263.538 97.7733 264.472 98.68C265.405 99.56 266.552 100 267.912 100C269.272 100 270.418 99.56 271.352 98.68C272.285 97.7733 272.752 96.4267 272.752 94.64C272.752 92.8533 272.285 91.5067 271.352 90.6ZM303.215 86.92V91.32C301.802 89.9333 300.215 89.24 298.455 89.24C296.962 89.24 295.722 89.7333 294.735 90.72C293.775 91.68 293.295 92.9733 293.295 94.6C293.295 96.28 293.802 97.6267 294.815 98.64C295.775 99.5467 296.962 100 298.375 100C300.322 100 301.935 99.28 303.215 97.84V102.2C301.802 103.08 300.095 103.52 298.095 103.52C295.402 103.52 293.269 102.693 291.695 101.04C290.095 99.3867 289.295 97.28 289.295 94.72C289.295 92.08 290.149 89.9067 291.855 88.2C293.509 86.5467 295.762 85.72 298.615 85.72C300.242 85.72 301.775 86.12 303.215 86.92ZM306.972 86.16H313.572C315.252 86.16 316.532 86.4933 317.412 87.16C318.452 87.9867 318.972 89.0667 318.972 90.4C318.972 91.92 318.306 93.0133 316.972 93.68C317.826 93.84 318.586 94.2133 319.252 94.8C320.132 95.6 320.572 96.68 320.572 98.04C320.572 99.6667 319.959 100.947 318.732 101.88C317.719 102.627 316.426 103 314.852 103H306.972V86.16ZM310.892 92.72H312.892C313.586 92.72 314.106 92.6 314.452 92.36C314.959 92.04 315.212 91.5867 315.212 91C315.212 90.44 314.986 90 314.532 89.68C314.212 89.4667 313.639 89.36 312.812 89.36H310.892V92.72ZM310.892 99.8H313.812C314.692 99.8 315.372 99.64 315.852 99.32C316.386 98.9733 316.652 98.48 316.652 97.84C316.652 97.1467 316.399 96.6533 315.892 96.36C315.439 96.0667 314.786 95.92 313.932 95.92H310.892V99.8ZM322.508 103L327.788 96.32C326.748 96.16 325.854 95.7333 325.108 95.04C324.174 94.1333 323.708 92.9733 323.708 91.56C323.708 89.96 324.228 88.6667 325.268 87.68C326.334 86.6667 327.961 86.16 330.148 86.16H336.428V103H332.508V96.8H331.708L327.108 103H322.508ZM332.508 93.6V89.52H330.228C329.294 89.52 328.614 89.64 328.188 89.88C327.548 90.28 327.228 90.84 327.228 91.56C327.228 92.28 327.494 92.8267 328.028 93.2C328.428 93.4667 329.148 93.6 330.188 93.6H332.508ZM343.666 90.52L341.146 88.32C341.786 87.5467 342.64 86.92 343.706 86.44C344.826 85.96 346.146 85.72 347.666 85.72C349.426 85.72 350.853 86.1067 351.946 86.88C353.12 87.7333 353.706 88.88 353.706 90.32C353.706 91.2533 353.466 92.0267 352.986 92.64C352.586 93.1733 352.053 93.5733 351.386 93.84C352.4 94.0533 353.213 94.4667 353.826 95.08C354.546 95.8 354.906 96.7333 354.906 97.88C354.906 99.4 354.426 100.64 353.466 101.6C352.186 102.88 350.213 103.52 347.546 103.52C345.76 103.52 344.293 103.187 343.146 102.52C341.946 101.827 341.066 100.827 340.506 99.52L343.626 97.92C344 98.72 344.493 99.3067 345.106 99.68C345.773 100.107 346.613 100.32 347.626 100.32C348.853 100.32 349.746 100.04 350.306 99.48C350.706 99.0267 350.906 98.5333 350.906 98C350.906 97.44 350.733 96.9867 350.386 96.64C349.933 96.16 349 95.92 347.586 95.92H345.826V92.72H347.306C348.16 92.72 348.8 92.5733 349.226 92.28C349.706 91.9067 349.946 91.4133 349.946 90.8C349.946 90.16 349.706 89.68 349.226 89.36C348.826 89.0667 348.2 88.92 347.346 88.92C346.546 88.92 345.813 89.08 345.146 89.4C344.586 89.6667 344.093 90.04 343.666 90.52ZM359.003 103V86.16H362.923V92.12H365.163C365.883 92.12 366.47 92.1467 366.923 92.2C367.377 92.2267 367.923 92.3733 368.563 92.64C369.203 92.9067 369.763 93.3067 370.243 93.84C371.123 94.8267 371.563 96.0533 371.563 97.52C371.563 99.2 371.057 100.547 370.043 101.56C369.59 102.013 369.043 102.36 368.403 102.6C367.79 102.813 367.27 102.933 366.843 102.96C366.443 102.987 365.87 103 365.123 103H359.003ZM362.923 99.64H364.723C365.683 99.64 366.363 99.52 366.763 99.28C367.35 98.8533 367.643 98.28 367.643 97.56C367.643 96.8133 367.363 96.2533 366.803 95.88C366.377 95.6133 365.697 95.48 364.763 95.48H362.923V99.64Z" fill="white"/>
<path d="M66.7188 60H358.265V62H66.7188V60ZM43.125 111H372.523V113H43.125V111Z" fill="white"/>
</svg>
