<svg width="55" height="34" viewBox="0 0 55 34" fill="none" xmlns="http://www.w3.org/2000/svg">
<path d="M38.9302 4.4187H26.71V24.6272L54.0779 22.1012V13.2592L47.8284 11.6126L38.9302 4.4187Z" fill="#C92032"/>
<path d="M51.2394 22.1012C49.3907 20.5458 46.7954 19.575 43.9228 19.575C41.0503 19.575 38.4549 20.5458 36.6062 22.1012L26.71 22.101L31.397 27.785L54.0782 27.7853V22.1012H51.2394Z" fill="#5B5B5B"/>
<path d="M31.3955 0.629395V19.5749L7.95996 22.1012L18.8968 0.629849L31.3955 0.629395Z" fill="#EDEDED"/>
<path d="M15.7726 3.15565V22.1012L0.150391 19.5749V0.629395H12.648L15.7726 3.15565Z" fill="#EDEDED"/>
<path d="M18.8979 0.630005H12.6484V10.1022H18.8979V0.630005Z" fill="#C92032"/>
<path d="M31.3977 19.5747H0.150391V22.1009L16.5553 25.2585L31.3977 22.1008V19.5747Z" fill="#CCCCCC"/>
<path d="M31.3967 22.1006H0.149414V27.7847H31.3967V22.1006Z" fill="#B2B2B2"/>
<path d="M10.3053 33.4693L6.08691 27.7853L10.3053 22.1013C14.182 22.1013 17.336 24.6512 17.336 27.7853C17.336 30.9195 14.1821 33.4693 10.3053 33.4693Z" fill="#383838"/>
<path d="M3.27539 27.7852C3.27539 30.9194 6.42935 33.4692 10.3061 33.4692V22.1011C6.42935 22.1012 3.27539 24.651 3.27539 27.7852Z" fill="#4C4C4C"/>
<path d="M10.3065 30.9433L7.96289 27.7854L10.3065 24.6276C12.4601 24.6276 14.2123 26.0442 14.2123 27.7854C14.2123 29.5267 12.4601 30.9433 10.3065 30.9433Z" fill="#CCCCCC"/>
<path d="M6.40039 27.7853C6.40039 29.5265 8.15261 30.9431 10.3063 30.9431V24.6276C8.15247 24.6276 6.40039 26.0442 6.40039 27.7853Z" fill="white"/>
<path d="M43.9224 33.4692L39.7041 27.7852L43.9224 22.1013C47.7991 22.1013 50.953 24.6511 50.953 27.7852C50.953 30.9193 47.7991 33.4692 43.9224 33.4692Z" fill="#383838"/>
<path d="M36.8926 27.7852C36.8926 30.9194 40.0465 33.4692 43.9233 33.4692V22.1011C40.0465 22.1012 36.8926 24.651 36.8926 27.7852Z" fill="#4C4C4C"/>
<path d="M43.9227 30.9431L41.5791 27.7853L43.9227 24.6276C46.0763 24.6276 47.8286 26.0442 47.8286 27.7853C47.8286 29.5265 46.0763 30.9431 43.9227 30.9431Z" fill="#CCCCCC"/>
<path d="M40.0176 27.7853C40.0176 29.5265 41.7698 30.9431 43.9235 30.9431V24.6276C41.7698 24.6276 40.0176 26.0442 40.0176 27.7853Z" fill="white"/>
</svg>
