<svg width="232" height="100" viewBox="0 0 232 100" fill="none" xmlns="http://www.w3.org/2000/svg">
<path fill-rule="evenodd" clip-rule="evenodd" d="M102.622 0.268694C101.487 0.727522 100.473 1.92784 100.045 3.32004C99.9106 3.7569 99.8183 4.12044 99.8402 4.12801C99.8619 4.13557 100.073 4.2038 100.31 4.27945L100.74 4.41721L100.286 5.07185C100.036 5.4319 99.5118 5.89509 99.1211 6.10109C98.7302 6.30708 98.3282 6.5877 98.2279 6.72488C98.1275 6.86207 97.5903 7.45939 97.034 8.05234C95.8129 9.35377 95.5071 10.1779 95.651 11.7817C95.7316 12.6809 95.8882 13.1316 96.3897 13.9071C96.9849 14.8277 97.1063 14.9217 98.2627 15.3597C98.9428 15.6172 99.6364 15.7958 99.804 15.7567C99.9718 15.7176 102.02 15.7851 104.355 15.9067C106.69 16.0285 108.665 16.128 108.743 16.128C108.821 16.128 109.068 15.9019 109.291 15.6255L109.697 15.1232L112.208 15.2006C114.508 15.2716 114.77 15.2532 115.329 14.9813C116.357 14.4819 116.806 13.6373 116.809 12.2001C116.811 11.2125 116.732 10.8612 116.42 10.4547C115.833 9.69083 115.393 9.58609 112.754 9.58376C110.417 9.58158 110.407 9.58013 109.853 9.15636C109.37 8.78729 109.297 8.62319 109.297 7.914C109.297 7.10865 109.279 7.08261 108.06 6.09018C107.38 5.5365 106.823 4.99053 106.823 4.8772C106.823 4.76373 106.957 4.42579 107.121 4.12626C107.907 2.68722 107.11 0.905439 105.396 0.27073C104.422 -0.0896118 103.51 -0.0901937 102.622 0.268694ZM103.681 1.1414C104.097 1.47337 104.284 1.53753 104.478 1.41446C104.617 1.32615 104.731 1.13092 104.731 0.980794C104.731 0.672969 104.933 0.629181 105.246 0.868924C105.4 0.986905 105.362 1.24032 105.104 1.81451C104.742 2.61855 104.819 2.72853 105.537 2.43482C105.864 2.30098 105.984 2.31946 106.19 2.53549C106.853 3.22824 106.18 4.23071 104.872 4.49999C103.913 4.69754 101.813 4.35975 101.23 3.91416C100.879 3.64546 100.877 3.61128 101.192 2.98093C101.372 2.62103 101.767 2.08742 102.071 1.79531C102.375 1.50305 102.675 1.13878 102.739 0.985741C102.895 0.60896 103.045 0.63369 103.681 1.1414ZM137.69 4.08553C137.454 4.17238 137.045 4.59353 136.78 5.02137C136.516 5.44921 136.256 5.79922 136.204 5.79922C136.151 5.79922 135.6 5.63556 134.979 5.43554C133.215 4.86789 132.154 4.92986 130.085 5.72198C126.623 7.04726 124.85 9.29267 124.869 12.3274C124.902 17.6293 131.644 22.393 141.396 24.0054C144.047 24.4438 148.351 24.4455 150.448 24.0092C154.945 23.0732 157.557 20.8146 158.183 17.3207C158.693 14.4707 157.403 12.1614 154.831 11.3181C154.375 11.1689 154.003 11.028 154.005 11.0052C154.006 10.9822 154.134 10.6422 154.29 10.2495C154.446 9.85667 154.573 9.3222 154.573 9.0618C154.573 8.65301 154.449 8.52965 153.663 8.16014C153.163 7.92462 152.351 7.59584 151.86 7.42957L150.966 7.12727L149.012 8.71848C146.672 10.6251 145.965 11.555 145.855 12.8722C145.779 13.786 145.792 13.8171 146.457 14.2964C147.229 14.8536 148.024 15.0274 150.834 15.254C153.125 15.4387 153.432 15.548 153.432 16.1809C153.432 16.835 152.233 18.1179 151.146 18.6274C148.807 19.724 144.775 19.7676 140.686 18.7408C138.946 18.3038 136.05 17.1149 134.643 16.2599C131.64 14.4348 130.087 11.7086 131.455 10.6625C132.007 10.2406 132.144 10.2543 134.693 10.9838C137.766 11.8634 139.182 11.7941 140.401 10.7051C141.344 9.86293 141.946 8.31624 142.116 6.29689L142.252 4.68532L140.715 4.29661C139.074 3.88186 138.374 3.83313 137.69 4.08553ZM105.696 5.38884C105.819 5.6152 106.211 5.99663 106.568 6.23638C107.116 6.60385 107.185 6.71746 107.015 6.96157C106.698 7.41414 105.723 7.73361 104.951 7.63774L104.279 7.55424L104.98 7.99663C105.776 8.49794 105.848 8.7483 105.302 9.10617C105.092 9.24321 104.921 9.40104 104.921 9.45691C104.921 9.51277 105.499 9.59918 106.205 9.64893C109.387 9.87311 109.225 9.8318 109.551 10.5023C109.714 10.836 109.904 11.3546 109.973 11.6546L110.1 12.2001L109.175 12.2022C108.666 12.2032 108.041 12.247 107.785 12.2993C107.354 12.3875 107.347 12.4026 107.69 12.5053C107.893 12.5663 108.462 12.6207 108.952 12.6264C109.443 12.6319 109.899 12.7041 109.966 12.7867C110.164 13.0321 109.024 14.4281 108.326 14.7938C107.693 15.1256 107.617 15.1306 104.636 15.0314C102.962 14.9757 101.249 14.8871 100.831 14.8345C99.7017 14.6927 99.727 14.3085 100.921 13.4541C102.074 12.6299 102.888 12.3456 104.097 12.3456C105.103 12.3456 105.032 12.1868 103.904 11.9108C102.714 11.6198 102.323 10.4352 103.17 9.68981C103.519 9.38228 103.489 9.35289 102.638 9.18618C102.078 9.07634 101.963 8.98426 101.914 8.6037C101.869 8.25877 101.944 8.13017 102.23 8.06078C102.721 7.94164 103.338 7.25398 102.954 7.25398C102.808 7.25398 102.471 7.38549 102.204 7.54624L101.718 7.8385L100.758 7.38199L99.7972 6.92549L100.837 6.04668C101.409 5.56326 101.877 5.11986 101.877 5.06123C101.877 5.00275 102.686 4.95983 103.675 4.96594C105.464 4.977 105.474 4.97904 105.696 5.38884ZM139.241 6.43859C139.144 6.68415 139.257 6.64545 139.808 6.24351C140.597 5.66859 140.598 5.6731 140.191 7.20204C139.992 7.95051 139.737 8.47059 139.451 8.70873C139.212 8.90876 138.833 9.35057 138.61 9.69069C138.183 10.3418 138.07 10.3751 136.501 10.3114C135.226 10.2598 131.859 9.04099 131.873 8.63599C131.876 8.55598 132.094 8.39654 132.358 8.28176C132.804 8.08784 132.956 8.11635 134.506 8.68516C135.424 9.02179 136.201 9.27725 136.233 9.25266C136.265 9.22808 135.418 8.80692 134.351 8.31682C132.423 7.43146 132.408 7.42724 131.87 7.66713C130.402 8.32162 129.63 9.35435 129.504 10.8318C129.425 11.7515 129.494 12.0347 130.14 13.4357C131.184 15.6995 132.431 16.7891 135.634 18.2371C139.024 19.7698 143.476 20.7862 146.773 20.7801C151.314 20.7717 154.839 18.7401 155.099 15.9821C155.253 14.3466 154.725 13.7957 152.509 13.2813C151.403 13.0248 151.149 13.0222 151.149 13.2673C151.149 13.3812 151.628 13.5635 152.305 13.7074C153.489 13.9592 153.799 14.3379 152.773 14.2801C148.965 14.0653 148.001 13.9432 147.668 13.6331C147.48 13.4579 147.352 13.1785 147.383 13.012C147.43 12.7601 147.595 12.7017 148.369 12.6642L149.299 12.619L148.669 12.1223C147.896 11.5123 147.93 11.4355 149.717 9.76342C151.01 8.5538 151.526 8.32802 152.062 8.73782C152.434 9.02208 152.329 9.36249 151.624 10.1635C150.933 10.9496 150.789 11.476 151.196 11.7321C151.327 11.8143 152.318 12.1165 153.399 12.4035C154.479 12.6905 155.502 12.9851 155.673 13.058C156.057 13.2224 156.637 15.6003 156.652 17.0736C156.669 18.7487 155.658 19.989 153.631 20.7798C152.481 21.2285 149.685 21.8019 148.206 21.8927C147.298 21.9486 146.41 21.8972 145.442 21.7334C143.204 21.3545 142.677 21.3185 142.205 21.5117C141.547 21.7808 141.989 21.9017 144.571 22.1607C146.927 22.3968 148.321 22.3409 151.337 21.8898C152.12 21.7725 152.783 21.6936 152.81 21.7142C152.837 21.7349 152.659 21.8961 152.414 22.0722C152.029 22.3486 151.428 22.4445 148.019 22.7723L144.071 23.1522L142.141 22.8278C139.395 22.3665 137.109 21.7583 135 20.9286C132.599 19.9841 129.628 18.2056 128.473 17.0216C127.525 16.0496 126.741 14.6875 126.837 14.1764C126.881 13.9381 127.133 14.1195 128.01 15.0226C130.099 17.1728 131.774 18.3027 134.884 19.6584C136.736 20.4663 137.178 20.5782 137.328 20.2782C137.41 20.1159 137.12 19.932 136.26 19.5997C133.267 18.4447 130.032 16.5123 128.858 15.1798C127.514 13.6533 126.774 11.55 127.165 10.3647C127.69 8.77085 128.983 7.40774 130.676 6.66509C131.943 6.10967 132.556 6.1216 135.205 6.75238C138.048 7.42942 138.455 7.3321 138.886 5.87196C139.014 5.43655 139.015 5.43626 139.188 5.78395C139.284 5.97554 139.308 6.27013 139.241 6.43859ZM107.62 7.6728C108.02 7.78903 108.054 7.87501 107.995 8.61781C107.931 9.41821 107.919 9.4332 107.424 9.34926C106.419 9.1789 106.253 9.12275 106.253 8.95255C106.253 8.58377 106.638 7.77798 106.868 7.66654C107.166 7.5218 107.097 7.52121 107.62 7.6728ZM100.688 8.1616L101.323 8.63294L100.699 9.02296L100.074 9.41297L100.642 9.50593C101.623 9.66625 101.774 9.80416 102.08 10.8215L102.377 11.8122L100.721 13.0609C99.81 13.7476 99.0189 14.4077 98.963 14.5277C98.8219 14.8312 98.1965 14.2567 97.5377 13.2185C96.847 12.1297 96.8181 10.4477 97.4712 9.36351C97.8672 8.70626 97.9285 8.66436 98.1096 8.92709C98.3345 9.25339 98.819 9.58158 99.0758 9.58158C99.169 9.58158 99.2238 9.30343 99.1974 8.96331C99.1129 7.87574 99.1765 7.6904 99.6328 7.6904C99.8634 7.6904 100.338 7.9025 100.688 8.1616ZM112.522 11.1507C112.809 11.9394 112.769 12.373 112.311 13.4402C112.028 14.099 111.84 14.3485 111.704 14.2445C111.568 14.1406 111.589 13.8565 111.773 13.3289C111.922 12.901 112.015 12.092 111.985 11.4934C111.925 10.3388 112.171 10.1825 112.522 11.1507ZM113.772 10.8027C114.287 11.4042 114.318 12.1032 113.879 13.208C113.655 13.7739 113.426 14.2368 113.371 14.2368C113.316 14.2368 113.297 13.6641 113.329 12.9639C113.361 12.2639 113.315 11.4128 113.227 11.0727C113.045 10.3666 113.292 10.2438 113.772 10.8027ZM115.52 11.7643C115.582 13.088 115.229 13.9722 114.601 14.0615C114.323 14.1009 114.319 14.0315 114.554 13.3392C114.696 12.9179 114.813 12.0916 114.813 11.5032C114.813 10.5739 114.856 10.4393 115.137 10.4808C115.406 10.5203 115.471 10.7381 115.52 11.7643ZM126.798 13.5993C126.798 13.7193 126.713 13.7771 126.608 13.7276C126.504 13.6782 126.418 13.5395 126.418 13.4195C126.418 13.2995 126.504 13.2417 126.608 13.2912C126.713 13.3407 126.798 13.4793 126.798 13.5993ZM29.2064 22.4803C24.2147 23.0815 21.3939 24.1154 17.2233 26.8723C8.27183 32.7897 2.75208 41.419 0.562629 52.9191C-0.187099 56.8564 -0.187289 57.5077 0.560537 66.0152C1.21191 73.4279 1.27526 73.8954 1.92873 76.1257C3.23604 80.5877 4.59586 83.4185 7.15704 87.0097C9.60578 90.4432 11.9073 92.5714 15.4955 94.7198C20.0462 97.4447 24.7676 98.6962 31.8697 99.0606C37.8144 99.3655 40.4026 99.0741 44.1399 97.679C45.291 97.2493 46.6179 96.7989 47.0887 96.6782C47.8729 96.4771 55.4518 95.3123 65.7321 93.8129C70.2768 93.15 71.2297 92.8791 72.7948 91.8049C75.9564 89.6347 79.2389 84.4945 79.2389 81.7136C79.2389 80.229 77.7831 77.5246 76.1021 75.8869C74.4623 74.2891 70.5451 72.0011 68.4532 71.419C65.3993 70.5694 65.6765 70.7058 65.8072 70.1175C65.9815 69.3339 66.6825 60.051 66.6829 58.521L66.6832 57.1987L68.1576 56.882C69.0606 56.6879 71.6958 56.397 74.9586 56.131C81.16 55.6255 84.5207 55.2321 85.9717 54.8423C87.2622 54.4953 88.2551 53.9719 90.0968 52.6673C90.8895 52.1057 92.4101 51.2436 93.4758 50.7512C96.3467 49.4251 96.9959 48.8739 98.5312 46.4595C100.332 43.6269 100.757 42.7176 100.874 41.4392C101.138 38.5597 98.5384 34.8061 94.5187 32.2635C91.2024 30.1659 86.4254 28.0694 83.1388 27.2696C81.3498 26.8341 68.6539 25.3645 65.4467 25.2215C64.2958 25.1701 60.9571 24.941 58.0274 24.7123C55.0978 24.4836 51.7163 24.2251 50.513 24.1378C46.2386 23.8277 42.2036 23.423 39.7646 23.0594C38.4044 22.8566 36.5661 22.6215 35.6794 22.537C34.1505 22.3913 30.2306 22.3569 29.2064 22.4803ZM34.2891 24.0508C35.0444 24.1794 36.521 24.5054 37.5708 24.7752C38.6205 25.045 39.4792 25.2401 39.4792 25.2087C39.4792 25.1772 38.9568 24.95 38.3186 24.7036C37.6801 24.4571 37.2009 24.2226 37.2536 24.1823C37.3796 24.086 42.8128 24.6918 43.4286 24.8709C43.6909 24.9471 44.5841 25.4006 45.4137 25.8786C46.2431 26.3566 47.0381 26.7477 47.1801 26.7477C47.322 26.7477 47.5735 26.7874 47.739 26.836C47.9045 26.8845 48.0399 26.8594 48.0399 26.7799C48.0399 26.7005 47.3912 26.3172 46.5981 25.9279C45.2575 25.2698 45.1942 25.2165 45.6945 25.1679C46.7977 25.061 62.9742 26.1797 65.6894 26.5508C66.209 26.6218 66.2744 26.6713 66.0827 26.8479C65.9562 26.9646 65.5045 27.1948 65.079 27.3597C62.1638 28.4896 61.0878 30.2532 61.5099 33.2098C61.778 35.0859 62.4345 36.3156 64.5452 38.8948C66.4599 41.2348 67.565 42.3096 68.6237 42.8614C69.9903 43.5739 73.603 45.0723 75.0088 45.5097C76.5672 45.9948 82.8632 47.4462 82.9895 47.3497C83.1533 47.2243 82.3733 46.9982 79.4351 46.3195C73.2358 44.8871 68.1926 42.2843 65.3579 39.0538C64.0256 37.5357 62.5905 35.2147 62.2012 33.9487C61.3701 31.2462 62.7059 28.7415 65.5835 27.6071C67.5924 26.8152 71.1443 26.6982 76.6707 27.242C79.4891 27.5194 80.4317 27.6758 81.9974 28.126C87.7352 29.7757 93.0457 32.4922 95.9725 35.2742C99.122 38.2681 100.227 40.8427 99.2765 42.975C98.9558 43.6948 97.5792 44.8942 95.8954 45.9211C95.4826 46.1728 95.2054 46.4251 95.2794 46.4817C95.4029 46.5759 95.8718 46.422 97.115 45.879C97.7329 45.609 97.7851 45.6798 97.3983 46.2642C96.3708 47.817 93.9841 49.5233 91.6274 50.3901C90.5393 50.7903 89.8396 51.1876 88.8226 51.9828C87.1989 53.2522 85.6197 53.9069 83.6863 54.112C81.6839 54.3244 72.3554 55.2208 70.1197 55.4157C68.2632 55.5775 66.2223 55.541 65.5146 55.3334C65.2711 55.262 65.2372 55.1392 65.3529 54.7473C65.5125 54.2058 64.7422 50.8088 64.4004 50.5474C64.108 50.3238 64.1647 51.9038 64.4928 53.1211C65.2137 55.7961 65.3799 61.2683 64.8805 65.8805C64.1293 72.8173 61.2067 81.1026 58.0813 85.156C55.7539 88.1744 53.8778 90.1136 51.7161 91.7348C48.2186 94.3581 47.9362 94.5094 43.5305 96.1197L39.4967 97.5941L37.8234 97.5893L36.1501 97.5843L36.6257 97.2761C36.8872 97.1065 37.8289 96.7077 38.7183 96.39C40.5219 95.7454 41.4621 95.2588 41.7792 94.8056C41.9388 94.5775 41.9346 94.4752 41.7623 94.3938C41.6219 94.3274 41.217 94.5272 40.7167 94.9098C39.7149 95.6757 37.4081 96.5333 34.8184 97.1022C33.1021 97.4793 32.6369 97.5202 30.0624 97.5202C26.9404 97.5202 25.5882 97.321 22.6004 96.4211C17.7383 94.9568 12.7221 91.8372 9.78536 88.4515C8.31197 86.7531 6.34472 83.5451 5.0433 80.719L3.87087 78.1731L2.46387 69.8083C1.52504 64.2277 1.05592 60.9452 1.05401 59.9467C1.04507 55.1911 3.11144 47.5089 5.934 41.8043C6.84048 39.9724 9.67446 35.7348 10.7499 34.6033C11.2443 34.0832 12.1038 33.134 12.66 32.4939C14.4475 30.4369 20.5829 26.0633 23.0122 25.1144C23.437 24.9484 24.7263 24.5571 25.8772 24.2449L27.9698 23.677L30.4429 23.7471C31.8031 23.7856 33.5339 23.9224 34.2891 24.0508ZM24.8688 27.4387C24.666 27.6586 24.3138 28.1333 24.0861 28.4934C23.7045 29.0966 23.7015 29.1221 24.0475 28.8176C24.4107 28.498 24.4677 28.4928 25.7878 28.6595L27.1526 28.8319L27.0228 29.9355C26.7561 32.2008 26.2739 32.91 25.0558 32.8281C24.4978 32.7905 24.3793 32.7101 24.1603 32.2212C23.8329 31.4893 23.5795 31.2977 23.4481 31.6825C23.3859 31.864 23.5057 32.1368 23.7536 32.3777C23.9777 32.5956 24.1369 32.8837 24.1072 33.0176C24.0715 33.179 24.2583 33.3159 24.6608 33.4231C25.5738 33.6665 26.056 33.6211 26.5919 33.2412C27.2916 32.7454 27.6114 32.1982 27.9637 30.894C28.4696 29.0213 28.0022 27.9049 26.4759 27.3399C25.4277 26.9519 25.3107 26.959 24.8688 27.4387ZM71.9148 29.1655C68.7026 29.5338 67.1665 30.0309 65.8314 31.1337C64.1131 32.5528 63.8103 33.9319 64.7592 36.0165C65.4908 37.6237 66.1917 38.413 68.2048 39.897C74.7982 44.7576 85.6243 46.7374 92.0393 44.2557C93.3666 43.7422 94.3748 42.9821 94.9699 42.046C95.4284 41.3247 95.4914 41.0598 95.4771 39.9132C95.4581 38.3625 95.195 37.7437 93.9424 36.303C92.287 34.3988 89.6634 32.5032 87.4715 31.6278C86.3982 31.199 84.785 30.9404 85.0233 31.2353C85.0979 31.3275 85.2423 31.4029 85.3444 31.4029C85.4464 31.4029 86.2332 31.7047 87.0929 32.0738C91.2593 33.8626 93.6917 35.9529 94.5546 38.4865C95.1059 40.1048 94.825 40.0607 93.6584 38.346C93.1406 37.5847 92.439 36.8417 91.7163 36.2891C90.6374 35.4641 90.5762 35.4386 90.3996 35.7409C90.2979 35.9154 90.1305 36.0581 90.0275 36.0581C89.9248 36.0581 89.1222 35.6651 88.2441 35.1848C85.2683 33.5572 82.9798 32.6852 80.2442 32.1369C79.5871 32.0053 74.432 31.2657 74.1025 31.2558C74.0502 31.2542 74.1358 31.1894 74.2928 31.1119C74.4497 31.0344 75.1304 30.9699 75.8052 30.9686C76.77 30.9669 76.9827 30.9286 76.8003 30.7891C76.6538 30.6771 75.6642 30.5834 74.1141 30.5345C72.7644 30.492 71.6034 30.4138 71.5341 30.3607C71.4649 30.3074 71.4989 30.1348 71.6095 29.9768C71.9066 29.552 75.1899 29.4117 77.9073 29.7076C81.48 30.0966 82.0202 30.1292 81.7769 29.9413C81.6555 29.8476 80.9707 29.6414 80.255 29.4832C79.2428 29.2594 78.2349 29.1848 75.7195 29.1477C73.9408 29.1214 72.2287 29.1294 71.9148 29.1655ZM120.675 29.5348C118.856 29.6729 117.421 30.0254 115.611 30.778C114.032 31.435 114.03 31.4354 112.635 31.3355C110.088 31.1529 104.432 32.1198 101.818 33.1846C100.73 33.6279 99.0237 34.8932 99.0237 35.2568C99.0237 35.7376 99.9327 35.5374 103.432 34.2857C106.009 33.3637 107.501 32.9178 108.493 32.7725C110.141 32.5316 112.455 32.5009 112.63 32.7178C112.698 32.801 112.279 33.5047 111.701 34.2817C111.122 35.0587 110.125 36.7403 109.486 38.0189C107.973 41.0426 107.038 42.553 106.258 43.2325C105.91 43.5352 104.745 44.2413 103.668 44.8017C101.378 45.9939 99.295 47.5302 98.1663 48.8599C97.4841 49.6633 97.0941 50.3239 95.8905 52.715C95.7577 52.9787 95.7198 52.9627 95.4868 52.5443C95.199 52.0273 95.1466 51.994 94.4104 51.8594C93.9339 51.7724 93.8873 51.8004 93.8873 52.1737C93.8873 52.6706 96.7348 56.9879 97.6112 57.8194L98.2378 58.4143L97.7835 59.3712C97.5338 59.8975 97.1923 61.0701 97.0249 61.9769C96.645 64.0346 96.4593 64.4257 95.8623 64.4257C94.5373 64.4257 93.1902 66.1463 89.8828 72.0632C87.704 75.961 87.2289 77.0683 87.2289 78.2485C87.2289 80.4635 89.0022 83.0592 91.9284 85.1277C94.8531 87.1952 99.9178 89.1063 104.35 89.8152C107.797 90.3664 111.463 90.2263 114.326 89.4342C116.068 88.9523 116.361 88.7838 117.485 87.6206C117.91 87.1808 118.341 86.8603 118.442 86.9085C118.544 86.9565 119.152 87.5924 119.793 88.3215C122.577 91.4875 124.435 92.357 128.418 92.357C132.746 92.357 137.655 91.1066 142.017 88.8935C143.983 87.8961 147.573 85.1869 148.458 84.0327C149.67 82.4513 150.06 81.5051 150.156 79.9085C150.259 78.1967 150.05 77.5083 148.797 75.4446C147.385 73.1182 143.502 67.9007 142.025 66.3459C140.674 64.9237 138.444 64.1617 134.049 63.6205C133.067 63.4995 132.013 63.2875 131.706 63.1493C130.45 62.5845 129.92 61.1253 130.491 59.81C130.931 58.7974 131.904 57.993 133.511 57.3146C135.064 56.6588 135.655 56.2311 136.447 55.1881C136.927 54.5561 140.832 48.2591 142.582 45.2957C143.255 44.1567 144.11 41.6552 144.11 40.8253C144.111 39.0284 140.803 35.6042 136.892 33.3525C132.226 30.6665 125.775 29.1478 120.675 29.5348ZM52.2252 30.0684C52.2252 30.1461 52.7666 30.7891 53.4282 31.4973C54.0899 32.2054 55.2884 33.5006 56.0916 34.3755C56.8947 35.2504 57.5518 35.9196 57.5518 35.8625C57.5518 35.681 56.4273 34.0475 55.7073 33.1827C54.2133 31.3889 52.2252 29.6106 52.2252 30.0684ZM127.369 31.3665C128.991 31.6835 130.785 32.124 131.357 32.3455C133.306 33.101 137.401 35.3089 138.668 36.2875C140.961 38.0586 142.398 40.2222 142.398 41.9046C142.398 43.8858 140.882 45.0538 137.587 45.6111C136.833 45.7389 136.087 45.8982 135.93 45.9651C135.406 46.189 137.493 46.098 139.105 45.8267L140.663 45.5646L140.414 46.0121C139.283 48.0404 136.161 53.318 135.693 53.993C134.213 56.1256 131.315 56.9825 126.133 56.8193C122.179 56.6947 120.288 56.2881 116.141 54.6716C112.239 53.15 109.931 51.6449 108.319 49.5702C107.447 48.4478 107.014 47.4737 107.014 46.6356C107.014 45.8115 107.911 43.9161 110.197 39.9132C111.294 37.9929 112.286 36.2417 112.403 36.0217C112.519 35.8017 112.67 35.6216 112.739 35.6216C112.892 35.6216 113.206 36.2178 113.469 37.0092C114.072 38.8186 117.824 42.0185 120.972 43.4079C122.726 44.1818 121.492 43.105 118.561 41.3033C116.663 40.1372 115.307 38.8871 114.461 37.5256C113.902 36.6263 113.78 36.2523 113.724 35.2708C113.663 34.2018 113.705 34.0281 114.188 33.3716C115.111 32.115 117.166 31.1964 119.904 30.8169C121.699 30.568 124.24 30.7551 127.369 31.3665ZM76.6934 32.0635C80.7057 32.5956 84.3879 33.6718 87.1338 35.1147C90.6956 36.9862 92.3891 38.6456 93.2125 41.0711C93.6805 42.45 93.681 42.4489 91.9573 43.2835C90.6087 43.9366 90.3494 44.0134 89.9571 43.8768C89.6459 43.7683 89.5398 43.6392 89.614 43.4601C89.6902 43.2767 89.2782 42.8224 88.2066 41.9084C85.9241 39.9618 83.7579 38.6894 81.0825 37.7241C79.1414 37.0236 75.4663 36.2543 72.7817 35.9863C70.2238 35.7312 69.8579 35.6573 69.9789 35.421C70.0248 35.3313 70.5114 34.4887 71.06 33.5486L72.0579 31.8393H73.5309C74.3411 31.8393 75.7641 31.9401 76.6934 32.0635ZM175.659 33.4301C173.703 33.666 172.772 33.8978 167.807 35.3839C164.014 36.5195 161.787 37.2697 160.989 37.681C154.724 40.9117 151.466 43.7845 149.796 47.5506C148.996 49.3562 148.939 50.9018 149.616 52.424C150.454 54.3087 152.774 58.2352 153.614 59.1886C156.381 62.3312 160.372 64.6074 165.226 65.8102C166.707 66.1771 167.109 66.2123 169.982 66.2276C171.709 66.2368 175.28 66.1592 177.918 66.0552C181.325 65.9211 182.928 65.9103 183.453 66.0184C185.253 66.3891 186.869 67.7781 188.711 70.5392C189.38 71.5412 190.093 72.4755 190.295 72.6151C190.497 72.7549 191.023 72.9497 191.465 73.0481L192.268 73.227L191.731 73.7601C191.436 74.0534 189.91 74.9477 188.34 75.7473C183.749 78.087 181.998 79.3847 179.966 81.9555C178.203 84.1869 177.404 86.5767 177.969 87.9326C178.364 88.881 180.641 91.8474 182.186 93.4271C183.966 95.246 186.722 97.2849 188.093 97.7957C190.735 98.7806 195.347 99.1584 199.184 98.7044C202.507 98.311 207.206 97.0666 210.045 95.8282C214.563 93.8571 218.251 91.349 220.728 88.563C221.593 87.5896 223.292 84.9303 224.076 83.3208C225.178 81.06 227.617 76.8882 228.022 76.5729C228.332 76.3313 228.701 76.2734 230.198 76.2315L232 76.1812V75.5405C232 75.0283 231.933 74.8995 231.667 74.8978C231.484 74.8965 231.207 74.8339 231.051 74.7586C230.815 74.6446 230.871 74.54 231.384 74.1356C231.771 73.8304 232 73.5028 232 73.2552C232 72.8826 231.934 72.912 230.811 73.7834C230.157 74.2907 229.339 74.7802 228.993 74.871C228.391 75.029 228.369 75.0222 228.494 74.7135C228.79 73.9778 229.919 71.6801 230.619 70.3902C231.875 68.0745 232.072 67.3168 231.908 65.417C231.704 63.0568 231.691 61.6378 231.87 61.2616C232.07 60.8418 231.631 60.8137 231.155 61.2158C230.739 61.5674 230.71 62.2128 231.026 64.06C231.179 64.9515 231.224 65.9314 231.143 66.5962C230.756 69.7482 229.364 71.4061 226.514 72.1081C224.096 72.7036 224.725 72.869 227.948 72.4856L228.746 72.3906L227.925 73.8998C227.473 74.7299 226.61 76.3764 226.006 77.5587C225.403 78.7409 224.845 79.7382 224.768 79.7748C224.691 79.8113 223.996 79.2386 223.225 78.5021C222.453 77.7655 221.394 76.9142 220.871 76.6103C219.822 76.0005 218.268 75.5835 217.309 75.6542C216.745 75.6958 216.873 75.7684 218.713 76.4507C219.826 76.8634 221.078 77.4369 221.494 77.7248C224.159 79.5653 223.653 83.5748 220.27 87.4305C219.086 88.7805 216.164 91.1235 214.223 92.2805C212.662 93.2114 208.256 95.2134 205.831 96.0939C204.287 96.6549 200.833 97.3571 198.402 97.6044C197.435 97.7029 195.606 97.7441 194.058 97.7023C190.247 97.5996 188.386 97.1139 186.496 95.7294C184.928 94.5806 184.317 92.8192 184.81 90.8695C185.1 89.7256 186.399 87.6145 187.528 86.4529C188.661 85.2872 188.896 84.9406 188.669 84.7674C188.439 84.5915 186.741 86.5916 185.825 88.1186C184.69 90.0091 184.285 90.9534 184.145 92.042C184.071 92.6188 183.948 93.1201 183.872 93.1558C183.797 93.1916 183.557 93.0756 183.339 92.898C182.632 92.3203 179.869 88.6666 179.583 87.9299C178.672 85.5854 180.153 82.9916 184.349 79.58C185.977 78.2574 187.116 77.594 190.148 76.2062C193.526 74.6593 194.979 73.6883 196.327 72.077C196.824 71.4827 197.18 71.2385 197.887 71.0062C198.87 70.6834 203.437 69.9538 204.476 69.9538C204.822 69.9538 205.742 69.8264 206.52 69.6705C207.298 69.5149 209.947 69.1554 212.406 68.8719C217.574 68.276 218.799 68.0569 220.11 67.4951C222.711 66.38 222.518 64.5379 219.471 61.4062C218.829 60.7458 218.303 60.1879 218.303 60.1665C218.303 60.1451 218.598 60.0063 218.957 59.8581C219.318 59.7097 219.655 59.5027 219.708 59.3981C219.794 59.2266 211.172 48.9232 210.388 48.261C209.908 47.8557 208.825 47.6722 207.973 47.8522C207.105 48.0355 206.514 48.665 205.866 50.0996C205.613 50.658 205.343 51.2339 205.266 51.3794C205.137 51.6232 204.941 51.636 202.779 51.5419C200.492 51.4422 200.407 51.4493 199.397 51.8274C198.203 52.2738 196.454 53.6296 195.183 55.0931C194.407 55.9863 194.276 56.2836 193.479 58.9515L192.617 61.8421L192.666 64.443C192.703 66.3848 192.775 67.0441 192.95 67.0441C193.351 67.0443 193.439 66.354 193.308 64.2263C193.17 61.9876 193.339 60.5573 193.974 58.6152C195.395 54.2687 198.998 51.4719 202.489 52.0058C203.316 52.1322 203.233 52.2858 202.18 52.5777C199.56 53.3039 198.465 53.9128 197.149 55.3751C195.835 56.8351 194.634 59.7272 194.121 62.6668C193.91 63.8723 193.981 66.3197 194.262 67.5434L194.394 68.1151L193.722 67.7977L193.051 67.4804L192.955 68.13C192.834 68.9519 191.688 71.1465 191.416 71.0773C191.304 71.0486 190.266 69.95 189.11 68.6359C185.978 65.0747 185.45 64.8899 178.733 65.0049C170.475 65.1463 167.191 65.0795 165.529 64.7363C163.62 64.3424 162.198 63.8449 161.178 63.2142C160.736 62.9415 160.033 62.5546 159.614 62.3546C159.196 62.1546 158.074 61.4288 157.122 60.7419C154.48 58.8359 153.571 57.3316 153.59 54.8971C153.606 52.9621 154.384 51.2243 156.098 49.2963C156.985 48.2991 159.998 46.0604 161.517 45.2703C162.145 44.9437 162.821 44.5375 163.021 44.3679C163.378 44.0637 163.378 44.0592 162.997 44.0592C162.429 44.0592 159.472 45.7163 157.806 46.9687C155.592 48.6335 154.877 49.5598 153.233 52.8984C152.908 53.5595 152.561 54.0624 152.463 54.0161C152.365 53.9697 152.104 53.6612 151.884 53.3303C150.346 51.025 150.407 49.2572 152.116 46.6332C153.976 43.7786 156.149 41.8253 159.71 39.8093C164.668 37.0013 165.844 36.5578 171.504 35.3608C175.728 34.4674 176.09 34.4149 178.068 34.4087C179.513 34.4042 180.572 34.4848 181.491 34.6694C183.425 35.0575 185.89 35.8828 186.388 36.3083C188.338 37.9764 188.161 37.9507 199.66 38.2389C206.302 38.4055 207.361 38.6219 210.84 40.5259C211.706 40.9996 212.99 41.7814 213.694 42.2632C218.923 45.8423 220.623 46.5769 225.432 47.3344C228.878 47.8773 230.454 48.5198 230.781 49.515C230.993 50.162 230.482 50.359 228.892 50.2435C227.933 50.1738 227.219 50.2186 226.176 50.4137L224.761 50.6783L224.45 51.4323C224.157 52.1411 224.159 52.2275 224.482 52.8731C224.856 53.622 225.918 54.6146 226.496 54.7548C227.249 54.9376 227.254 54.6469 226.508 54.0282C225.524 53.2121 225.151 52.6401 225.151 51.9475C225.151 51.1526 225.746 50.7511 226.923 50.7511C227.957 50.7511 228.039 50.8706 227.241 51.2179C226.048 51.7372 226.156 52.7188 227.506 53.6255C228.791 54.4877 230.479 54.9652 231.53 54.7634C232.008 54.6718 232.014 54.654 231.96 53.4072C231.905 52.1562 231.899 52.1405 231.272 51.8183C230.924 51.6392 230.18 51.3904 229.617 51.2655C228.15 50.9392 228.137 50.7511 229.581 50.7511C230.565 50.7511 230.867 50.694 231.15 50.455C231.343 50.2921 231.613 50.1919 231.75 50.2322C231.921 50.2823 232 50.1725 232 49.8853C232 49.5593 231.765 49.305 230.953 48.7512C230.377 48.3586 229.963 47.9933 230.033 47.9395C230.104 47.8856 230.575 47.8416 231.081 47.8416H232V47.2016V46.5615L229.574 46.4581C228.24 46.4012 226.109 46.2402 224.837 46.1001C222.818 45.8778 222.336 45.7677 221.032 45.2303C219.261 44.5004 218.562 44.0825 215.544 41.9494C212.292 39.6509 211.231 39.0793 208.981 38.4162C205.971 37.529 203.396 37.2508 196.616 37.0803C190.785 36.9338 189.45 36.8003 188.84 36.3033C188.626 36.1285 188.169 35.7515 187.825 35.466C186.698 34.5306 182.208 33.3352 179.399 33.223C178.462 33.1857 177.025 33.2651 175.659 33.4301ZM52.4346 35.9676C52.2649 36.124 52.2931 36.1832 52.5632 36.2371C52.8008 36.2847 52.9176 36.2219 52.9359 36.0368C52.9673 35.7181 52.7396 35.6867 52.4346 35.9676ZM58.0293 36.6376C57.8891 36.8112 58.0672 37.0764 58.324 37.0764C58.5555 37.0764 58.557 36.6826 58.3259 36.5735C58.2285 36.5274 58.0951 36.5563 58.0293 36.6376ZM75.1353 37.0616C77.0938 37.4604 81.8403 39.0178 83.3161 39.7459C84.8987 40.5266 87.447 42.509 88.0591 43.4358C88.55 44.1788 88.5524 44.1977 88.1855 44.348C87.5828 44.5947 83.2231 44.5428 81.4609 44.268C77.0851 43.5855 72.2658 41.6996 69.1449 39.4484C67.8671 38.5265 66.3655 37.1254 66.5248 37.0037C67.1455 36.529 72.7033 36.5664 75.1353 37.0616ZM58.4429 37.3241C58.249 37.5637 60.3299 41.0042 60.6685 41.0042C60.7062 41.0042 60.6635 40.705 60.5743 40.3391C60.2979 39.2079 58.722 36.9788 58.4429 37.3241ZM26.543 37.7537C24.2229 38.4087 20.7263 39.7229 19.7622 40.3023C15.0308 43.1456 12.0277 47.621 10.4565 54.1697C10.2463 55.0458 10.1097 56.6616 10.0433 59.0529C9.89342 64.4553 10.2613 66.3243 12.5042 71.554C14.0284 75.1077 14.1745 75.3579 15.7723 77.1522C18.3183 80.0108 22.7023 82.803 25.8319 83.5591C28.2149 84.1347 32.2013 83.9471 34.2351 83.1637C36.2161 82.4005 39.7193 79.973 42.0278 77.7635C44.2095 75.6755 46.2785 71.3668 47.2622 66.8632C47.8297 64.2653 47.9568 60.0378 47.5466 57.4093C47.356 56.1891 47.0965 55.1354 46.9521 54.9971C46.7358 54.7897 46.7157 55.0772 46.823 56.8459C46.893 57.9978 46.9544 60.6163 46.9598 62.6649C46.9706 66.8291 46.8315 67.5903 45.471 70.8088C43.9696 74.3599 41.6139 78.0355 41.094 77.6381C41.0454 77.601 41.6548 76.4951 42.4479 75.1806C44.0718 72.4891 45.0473 70.4126 44.9598 69.8339C44.9183 69.5591 44.5702 70.1288 43.7756 71.7722C41.8705 75.7124 40.3749 77.6798 37.6952 79.7706C33.8604 82.7627 30.0881 83.7313 26.3528 82.6832C22.3089 81.5485 19.7723 80.0754 16.9545 77.2254C15.1742 75.4247 13.1126 71.6365 12.2847 68.6445C10.3861 61.7836 10.5385 56.9553 12.8627 50.3401C13.9221 47.3244 15.1995 45.4594 17.8385 43.0754C20.0394 41.0871 21.9277 40.0455 25.0209 39.113C27.1866 38.4603 29.4038 38.4632 31.8528 39.1221C32.8255 39.3836 32.9352 39.388 33.1411 39.1733C33.2699 39.039 33.4654 38.9853 33.598 39.048C33.7702 39.1293 33.7477 39.2034 33.5099 39.3362C33.2337 39.4907 33.2291 39.5265 33.4761 39.5989C33.6342 39.6453 33.8385 39.5786 33.9328 39.4494C34.0829 39.2444 34.2368 39.2741 35.1913 39.6916C39.4815 41.5687 42.3606 44.7045 44.7943 50.1511C45.3083 51.3013 45.8208 52.3127 45.9332 52.3987C46.3459 52.7143 46.136 51.6775 45.4947 50.234C43.8937 46.6296 41.5796 43.3983 39.3272 41.6221C38.1135 40.6647 35.7951 39.3013 34.6061 38.8454C34.1752 38.6801 33.5759 38.3876 33.2744 38.1952C32.7627 37.8689 32.527 37.8396 29.7771 37.7593C28.1553 37.7118 26.7 37.7094 26.543 37.7537ZM54.8729 40.0591C55.8258 41.8222 56.0299 42.1021 56.0299 41.6458C56.0299 41.3138 54.8004 38.8733 54.4882 38.5857C53.924 38.0658 54.044 38.5255 54.8729 40.0591ZM173.216 40.2568C172.636 40.3541 171.695 40.6628 171.695 40.7556C171.695 40.7732 173.257 40.7882 175.166 40.7889C178.478 40.7901 178.699 40.8083 179.964 41.1817C180.953 41.4735 181.327 41.5285 181.435 41.3977C181.675 41.1091 181.619 41.0575 180.874 40.8871C178.446 40.332 174.638 40.0185 173.216 40.2568ZM25.8772 40.6186C25.3853 40.9022 25.5217 40.9356 27.983 41.1337C29.0365 41.2187 30.1979 41.3836 30.5639 41.5006C32.8207 42.2217 36.4577 45.2713 38.174 47.8819C39.0968 49.2853 40.7167 52.9333 41.2247 54.7516C41.9165 57.2288 41.9957 58.0219 41.8931 61.4435C41.751 66.1917 41.277 68.2149 39.542 71.4813C36.2157 77.743 31.228 81.1851 26.3511 80.5845C25.6759 80.5013 24.299 80.1264 23.0874 79.696C21.9347 79.2863 20.9544 78.9795 20.9091 79.0143C20.7501 79.1357 23.7939 80.5506 24.7358 80.7932C27.0837 81.3975 29.7607 81.1465 32.2502 80.0888C34.0319 79.3316 37.1182 77.0333 38.4306 75.4859C40.3005 73.2817 42.1275 69.8185 42.7762 67.2487C42.936 66.6162 43.2166 65.5095 43.4002 64.7894C44.059 62.2027 43.7582 57.5676 42.692 53.8788C42.2677 52.4112 40.6562 48.6904 39.8348 47.2821C38.302 44.6541 34.3422 41.7108 31.1388 40.8185C29.7067 40.4194 26.4376 40.2952 25.8772 40.6186ZM24.7715 40.8073C24.5102 41.0071 24.6456 41.3158 24.9736 41.2675C25.1568 41.2405 25.3065 41.1266 25.3065 41.0144C25.3065 40.7847 24.9709 40.6548 24.7715 40.8073ZM170.828 40.8714C170.632 41.1141 171.073 41.3922 171.336 41.1915C171.555 41.0236 171.418 40.7133 171.124 40.7133C171.032 40.7133 170.899 40.7844 170.828 40.8714ZM169.221 41.2571C168.537 41.5205 168.466 41.8342 169.106 41.7661C169.672 41.7057 170.451 41.3825 170.415 41.2224C170.361 40.976 169.918 40.989 169.221 41.2571ZM23.2396 41.4513C22.9639 41.617 22.7383 41.8134 22.7383 41.8877C22.7383 42.1576 23.3176 42.0124 23.9242 41.5903C24.4831 41.2016 24.5052 41.1578 24.1432 41.1539C23.9219 41.1516 23.5152 41.2854 23.2396 41.4513ZM60.5005 41.2952C60.3413 41.4922 60.5561 41.7316 60.8922 41.7316C61.0431 41.7316 61.1663 41.6007 61.1663 41.4407C61.1663 41.1395 60.7073 41.0391 60.5005 41.2952ZM183.299 41.4153C183.299 41.7546 183.865 41.944 184.726 41.8932C185.04 41.8746 188.603 42.0374 192.643 42.255C199.931 42.6472 201.613 42.6375 199.85 42.2128C199.324 42.0861 197.452 41.9567 194.999 41.8774C192.801 41.8062 190.618 41.7088 190.148 41.6606C189.677 41.6126 188.093 41.518 186.628 41.4507C185.163 41.3832 183.815 41.2809 183.632 41.2233C183.379 41.1437 183.299 41.1899 183.299 41.4153ZM167.613 41.867C167.552 41.9415 167.59 42.0435 167.697 42.0938C167.923 42.201 168.27 42.0649 168.27 41.8685C168.27 41.6915 167.755 41.6903 167.613 41.867ZM61.5487 43.3682C62.1662 45.1084 62.3993 45.5956 62.6765 45.7266C62.9666 45.8637 62.9299 45.581 62.4773 44.196C62.0951 43.0256 61.4391 41.8771 61.153 41.8771C61.0796 41.8771 61.2577 42.5482 61.5487 43.3682ZM56.4104 43.896C56.4104 43.9661 56.5209 44.0937 56.656 44.1795C56.8417 44.2973 56.9084 44.2661 56.9296 44.0518C56.9452 43.8923 56.8379 43.7683 56.684 43.7683C56.5335 43.7683 56.4104 43.8257 56.4104 43.896ZM104.25 45.4804C103.62 45.9389 102.289 46.9032 101.293 47.6233C99.7464 48.7416 99.3667 49.113 98.6893 50.1692C97.8178 51.528 97.3148 52.8213 97.3055 53.7275C97.2998 54.2873 97.2853 54.3014 97.0036 54.0243C96.555 53.5835 96.7654 52.2135 97.4991 50.7976C98.2567 49.3356 99.9319 47.6817 102.133 46.2231C104.544 44.625 106.249 44.0271 104.25 45.4804ZM174.738 45.1039C171.33 45.5716 164.994 47.0401 162.753 47.8819C161.196 48.4671 159.616 49.6526 158.675 50.9424L157.951 51.9338L158.516 52.4699C159.366 53.2762 160.202 53.3917 164.751 53.3325L168.556 53.2831L170.858 52.6837C174.631 51.702 177.811 50.3834 180.04 48.8781C181.83 47.6683 182.348 47.367 182.348 47.5352C182.348 47.7765 180.777 49.0628 179.016 50.2646C178.122 50.8744 177.43 51.4034 177.479 51.4403C177.527 51.4773 177.871 51.4306 178.243 51.3367C178.965 51.1545 180.243 50.2368 182.538 48.2511C183.901 47.0719 184.994 46.3253 185.165 46.4562C185.209 46.4898 184.931 46.9475 184.546 47.4734C182.972 49.6255 180.627 51.262 176.386 53.1677C175.043 53.7714 173.982 54.2948 174.03 54.3309C174.077 54.367 175.598 53.789 177.41 53.0467C180.258 51.8795 180.904 51.5473 182.175 50.5931C183.529 49.5778 185.398 47.6409 185.68 46.9616C185.841 46.5727 185.962 46.5976 186.905 47.2151C188.914 48.5298 188.934 50.6149 186.96 52.809C186.629 53.1767 185.703 54.0237 184.902 54.691C183.392 55.9485 183.301 56.3491 184.695 55.5996C187.131 54.2908 189.184 51.0784 188.959 48.9306C188.843 47.8292 188.336 47.0585 187.201 46.2581C185.868 45.3189 184.631 44.9459 182.316 44.7864C179.362 44.5828 178.175 44.6325 174.738 45.1039ZM40.4365 45.1785C40.4331 45.3541 40.6418 45.6814 40.8999 45.9059C41.3491 46.2963 41.3698 46.3003 41.3755 45.9949C41.3789 45.8193 41.1702 45.492 40.9121 45.2675C40.4629 44.8771 40.4422 44.8731 40.4365 45.1785ZM126.434 44.9924C126.651 45.158 132.536 46.2413 133.218 46.2413C134.754 46.2413 134.179 45.985 132.073 45.7307C130.899 45.5889 129.424 45.352 128.796 45.2042C127.792 44.9683 126.217 44.8269 126.434 44.9924ZM204.537 45.0445C204.424 45.1843 205.83 46.7476 206.382 47.0956C207.288 47.6668 206.125 45.9729 205.112 45.2451C204.856 45.0609 204.597 44.9706 204.537 45.0445ZM56.9195 45.5723C56.8611 45.689 56.9579 45.8043 57.146 45.842C57.3652 45.8858 57.4839 45.8179 57.5016 45.6382C57.5326 45.3243 57.0703 45.272 56.9195 45.5723ZM181.757 45.786C182.179 45.8762 182.053 45.9998 180.045 47.4664C176.587 49.9921 173.955 51.1137 169.221 52.079C167.122 52.5069 162.894 52.6146 160.978 52.2886C160.18 52.1529 159.48 51.9844 159.424 51.9141C159.367 51.844 160.581 50.9968 162.122 50.0314C164.417 48.594 165.184 48.1997 166.359 47.8536C167.832 47.4203 173.875 46.2399 176.44 45.8846C177.948 45.6759 180.98 45.6196 181.757 45.786ZM30.441 46.0595C30.5146 46.1994 30.6984 46.625 30.8493 47.0051C31.0001 47.3852 31.217 47.6961 31.3311 47.6961C31.6545 47.6961 31.3966 46.4195 31.0066 46.0899C30.5879 45.7361 30.2616 45.7185 30.441 46.0595ZM62.6911 46.2777C62.6941 46.6218 62.989 47.0816 63.1313 46.9645C63.177 46.9268 63.2742 46.6833 63.347 46.4232C63.4631 46.0089 63.4306 45.9504 63.0838 45.9504C62.7995 45.9504 62.689 46.0425 62.6911 46.2777ZM105.136 46.3603C104.926 46.5857 104.04 47.3225 103.167 47.9977C101.887 48.9879 101.392 49.5062 100.61 50.6791C99.5491 52.2679 99.2877 52.7877 99.5491 52.7877C99.6429 52.7877 99.9269 52.4467 100.18 52.0301C100.434 51.6134 100.973 50.8769 101.38 50.3935C102.342 49.2499 104.943 46.9495 105.198 47.0164C105.318 47.0477 105.399 47.6431 105.403 48.5097C105.408 49.7575 105.484 50.0985 105.973 51.05C106.284 51.6545 106.728 52.3418 106.96 52.5775C107.364 52.9875 107.382 52.9917 107.388 52.6738C107.392 52.4911 107.18 52.0186 106.919 51.6239C106.426 50.881 106.33 50.385 106.612 50.0443C106.73 49.9029 106.875 50.0454 107.125 50.5451C107.778 51.8536 109.178 53.282 110.981 54.4812C114.049 56.5216 119.067 58.3364 121.559 58.3066C122.241 58.2983 122.276 58.2816 121.876 58.159C121.627 58.0829 120.567 57.8545 119.52 57.6514C118.472 57.4485 117.213 57.1265 116.722 56.9361C113.621 55.7345 108.976 52.6895 108.169 51.3293C107.33 49.9147 107.669 49.984 109.915 51.6859C114.931 55.4874 119.205 56.8935 126.813 57.2438C128.008 57.2989 129.2 57.3907 129.462 57.4479L129.937 57.5517L129.368 57.7254C129.054 57.821 127.438 57.9906 125.776 58.1024C124.113 58.2141 122.717 58.3329 122.674 58.3665C122.48 58.5148 123.917 58.7522 125.008 58.7522C126.502 58.7522 126.731 58.9678 125.459 59.1764C123.481 59.5007 121.18 59.2705 118.079 58.4384C114.673 57.5244 111.749 56.0995 109.207 54.1143C108.477 53.5446 107.81 53.0787 107.725 53.0787C107.385 53.0787 109.98 55.4312 110.984 56.033C113.436 57.503 115.968 58.5388 118.562 59.1329C121.146 59.7247 126.741 59.7883 128.587 59.2468C129.017 59.1207 129.111 59.6486 128.8 60.4345C128.145 62.0853 128.692 62.8777 131.149 63.8347C131.611 64.0145 131.907 64.213 131.815 64.2814C131.724 64.3492 130.543 64.6466 129.19 64.9422C123.514 66.1828 120.097 67.6231 116.802 70.1631C115.135 71.4488 114.326 72.338 113.849 73.4113C113.235 74.7897 113.309 74.7248 112.849 74.2984C112.42 73.9007 111.04 73.2997 110.556 73.2997C109.899 73.2997 110.181 73.687 111.087 74.0271C111.619 74.2271 112.161 74.5544 112.29 74.7545C112.545 75.1487 112.621 76.5005 112.388 76.4996C112.309 76.4993 110.952 76.3083 109.37 76.0752C107.149 75.7475 106.176 75.5284 105.09 75.1105C102.132 73.9723 100.016 72.6275 98.0582 70.6425C96.4697 69.0318 96.2249 68.0361 97.0361 66.4858C97.3123 65.9579 97.3897 65.9105 97.7873 66.026C98.4085 66.2066 98.453 66.0475 98.453 63.6472C98.453 62.0298 98.5353 61.3558 98.8336 60.5328C99.5077 58.6726 101.177 55.812 102.54 54.1834C103.985 52.4563 104.349 51.9149 104.067 51.9149C103.707 51.9149 103.609 52.0087 102.01 53.8922C101.257 54.7796 100.435 55.9089 100.184 56.4016C99.9328 56.8943 99.656 57.2974 99.5689 57.2974C99.3572 57.2974 98.5863 56.1041 98.1699 55.1318C97.3496 53.2161 98.6251 50.4511 101.377 48.1798C102.705 47.0836 104.619 45.9504 105.143 45.9504C105.514 45.9504 105.514 45.9543 105.136 46.3603ZM93.0312 46.8045C92.4034 46.9427 91.7186 47.1324 91.5093 47.2261C91.1834 47.3718 91.2705 47.397 92.1152 47.4008C93.2153 47.4057 93.8899 47.2482 94.6012 46.8203L95.0801 46.5323L94.6263 46.5426C94.3768 46.5483 93.659 46.6661 93.0312 46.8045ZM57.3616 46.976C57.3616 47.1399 57.5102 47.4835 57.6918 47.7397L58.0223 48.2052L58.0879 47.7816C58.1549 47.3513 57.8081 46.6778 57.5197 46.6778C57.4327 46.6778 57.3616 46.8119 57.3616 46.976ZM41.9399 47.5142C42.0231 47.7342 42.4755 48.6671 42.9452 49.5873C43.4149 50.5074 43.9022 51.5875 44.0282 51.9876C44.1543 52.3877 44.3778 52.8786 44.5249 53.0787L44.7924 53.4424L44.7992 53.0675C44.8072 52.6219 43.8492 49.9592 43.2804 48.8461C42.6372 47.5873 41.5644 46.5215 41.9399 47.5142ZM63.1197 47.5854C63.2677 48.3395 63.9581 50.0346 64.1894 50.2115C64.5686 50.5014 64.4238 49.5666 63.819 47.8202C63.718 47.5284 63.4983 47.2493 63.3309 47.2003C63.0801 47.1267 63.043 47.1945 63.1197 47.5854ZM74.483 47.937C73.0087 48.11 72.7709 48.1583 72.7709 48.2845C72.7709 48.3638 73.6193 48.4235 74.748 48.4235C76.2787 48.4235 76.7485 48.3769 76.8286 48.2173C77.0006 47.8746 76.0167 47.757 74.483 47.937ZM66.3979 48.2362C65.4699 48.4069 65.7303 48.5707 66.9781 48.6011C69.8033 48.6699 72.4768 48.5025 72.2877 48.2687C72.1773 48.1321 67.1155 48.1043 66.3979 48.2362ZM208.841 48.4125C209.123 48.4895 208.933 48.7543 207.631 50.1002C206.315 51.461 205.74 51.9639 205.749 51.7451C205.758 51.5451 206.38 50.1922 206.891 49.262C207.555 48.0538 207.543 48.059 208.841 48.4125ZM211.575 50.4226C213.295 52.2707 218.929 58.9041 218.837 58.9741C218.798 59.0037 218.394 59.1492 217.938 59.2972C217.147 59.5539 217.053 59.6547 215.851 61.5174C215.159 62.5906 214.508 63.4874 214.403 63.5104C214.298 63.5335 213.836 62.5215 213.375 61.2614C212.307 58.3407 211.81 57.383 210.664 56.0408C209.762 54.9844 208.118 53.5987 207.003 52.9569L206.452 52.6393L206.813 52.026C207.736 50.4581 209.622 48.6028 210.031 48.8619C210.153 48.9396 210.848 49.6418 211.575 50.4226ZM34.0824 49.3984C33.8107 49.6063 34.0017 49.8416 34.6788 50.1325C35.6126 50.5339 36.732 51.3946 37.3278 52.1694C37.8713 52.8763 38.2537 52.9901 38.0606 52.3877C37.8652 51.7775 37.2603 51.1868 36.0218 50.3964C34.5361 49.4483 34.226 49.2887 34.0824 49.3984ZM58.5658 51.5202C58.6122 52.5113 58.7016 52.8545 58.9632 53.0477C59.2855 53.2858 59.2946 53.2483 59.1654 52.2058C59.0912 51.6057 58.9124 50.9184 58.768 50.6783C58.5257 50.2749 58.5102 50.3385 58.5658 51.5202ZM46.1375 53.2052C46.1375 53.8161 46.4623 54.5334 46.7389 54.5334C46.9183 54.5334 46.9154 53.8063 46.7334 53.1633C46.5422 52.4882 46.1375 52.5166 46.1375 53.2052ZM229.332 53.2951C229.898 53.519 230.466 54.097 230.12 54.097C230.02 54.097 229.553 53.9704 229.08 53.8156C228.351 53.5766 227.815 53.1773 227.815 52.8735C227.815 52.7806 228.541 52.9822 229.332 53.2951ZM205.257 53.297C206.333 53.6937 208.274 55.1369 209.267 56.2794C210.315 57.4853 210.856 58.5594 211.771 61.2567C212.437 63.2187 212.477 63.4644 212.488 65.6597L212.501 67.9848L209.267 68.4518C207.488 68.7087 204.106 69.1522 201.752 69.4377C199.398 69.7229 197.287 69.9883 197.061 70.0273C196.544 70.1164 195.91 69.336 195.157 67.6829C194.673 66.6217 194.634 66.3651 194.634 64.2803C194.634 62.3156 194.7 61.823 195.148 60.4535C195.793 58.4815 196.595 57.0001 197.744 55.655C198.956 54.2371 200.163 53.456 201.751 53.0616C202.521 52.8702 204.45 52.9998 205.257 53.297ZM44.8514 54.3444C44.9084 54.8252 45.0893 55.4082 45.2533 55.6398L45.5516 56.0609L45.5581 55.4063C45.5659 54.6415 45.2636 53.7142 44.96 53.5708C44.8087 53.4992 44.7775 53.7214 44.8514 54.3444ZM169.317 53.9729C167.418 54.444 164.603 54.62 162.232 54.4159C161.106 54.319 159.741 54.1492 159.199 54.0385L158.212 53.8373L158.222 54.4162C158.232 54.9636 158.281 55.0107 159.114 55.2842C160.825 55.846 161.988 56.0034 163.609 55.8929L165.131 55.789L163.273 55.5945C161.382 55.3967 159.249 54.8952 159.417 54.6881C159.468 54.6254 159.958 54.663 160.507 54.7719C161.819 55.0323 165.864 55.0199 167.7 54.7499C171.11 54.2481 171.653 54.1072 171.396 53.7896C171.241 53.5985 170.596 53.6553 169.317 53.9729ZM172.047 54.7099C171.487 54.8677 170.472 55.0827 169.792 55.1876C168.196 55.4338 168.802 55.4534 171.268 55.2353C172.642 55.1137 173.306 54.9898 173.511 54.8165C173.775 54.5938 173.767 54.5634 173.433 54.4966C173.23 54.456 172.606 54.5519 172.047 54.7099ZM167.557 55.5065C167.74 55.5432 168.04 55.5432 168.223 55.5065C168.406 55.47 168.256 55.44 167.89 55.44C167.524 55.44 167.374 55.47 167.557 55.5065ZM52.4595 55.7973C52.2354 55.9423 51.8382 56.3882 51.577 56.7883C51.0156 57.6479 51.0851 57.6835 52.8965 57.4663C53.5154 57.3922 54.1272 57.3623 54.2558 57.4C54.5541 57.4876 54.7724 58.5843 54.653 59.3951C54.6024 59.7387 54.3379 60.392 54.0655 60.847L53.5701 61.6745L53.035 61.4628C52.7375 61.3452 52.307 60.956 52.0659 60.5869C51.5219 59.7538 51.274 59.6296 51.274 60.1898C51.274 60.4298 51.3485 60.6614 51.4397 60.7045C51.5308 60.7475 51.6565 60.9788 51.7193 61.2184C51.8517 61.725 52.8864 62.1399 53.8388 62.0685C54.3201 62.0324 54.4958 61.9001 54.9264 61.2507C55.2087 60.8246 55.5817 59.9877 55.7554 59.3908C56.3819 57.2374 55.6312 56.0605 53.3546 55.6268C53.0223 55.5634 52.7371 55.6178 52.4595 55.7973ZM165.845 55.652C166.028 55.6886 166.328 55.6886 166.511 55.652C166.694 55.6155 166.544 55.5855 166.178 55.5855C165.811 55.5855 165.662 55.6155 165.845 55.652ZM230.576 55.6942C230.39 55.9236 230.509 55.9867 231.311 56.0862C231.867 56.1552 232 56.1259 232 55.9345C232 55.804 231.893 55.6963 231.762 55.6952C231.632 55.6942 231.341 55.6558 231.118 55.6098C230.894 55.564 230.65 55.6019 230.576 55.6942ZM157.89 56.2052C157.788 56.6229 157.872 56.8399 158.365 57.4274C160.328 59.7665 163.719 60.909 168.175 60.7326C171.101 60.6166 172.206 60.464 174.929 59.7996C177.375 59.2026 180.674 57.9764 181.318 57.4249C181.681 57.1146 181.68 57.1137 181.219 57.2235C180.965 57.2842 179.699 57.7491 178.406 58.2567C175.817 59.2731 173.879 59.7928 171.665 60.064C169.855 60.2858 164.475 60.1841 163.514 59.91C163.148 59.8056 162.131 59.3594 161.253 58.9188C159.908 58.2432 159.6 58.013 159.292 57.4528C159.091 57.0874 158.79 56.5429 158.623 56.2428C158.246 55.5631 158.05 55.5531 157.89 56.2052ZM45.3766 57.0631C45.3766 57.6293 45.4805 57.9425 45.7508 58.1905C46.1136 58.5235 46.125 58.5248 46.1313 58.231C46.1423 57.703 45.7114 56.2791 45.5406 56.2791C45.4504 56.2791 45.3766 56.6319 45.3766 57.0631ZM3.82901 58.7666C3.31499 59.0757 2.27534 60.4642 2.45493 60.6015C2.50857 60.6425 2.98816 60.5962 3.52064 60.4985C4.07537 60.3968 4.85173 60.3626 5.33817 60.4183L6.18758 60.5158L6.18644 61.4887C6.18511 62.7474 5.9222 63.4425 5.21452 64.0588C4.71647 64.4927 4.58578 64.5372 4.20283 64.4038C3.93821 64.3115 3.67739 64.0316 3.54765 63.7007C3.42913 63.3984 3.19077 63.0613 3.01803 62.9519C2.73153 62.7705 2.71593 62.8046 2.84301 63.3347C3.17212 64.7094 4.12997 65.3056 5.52822 65.0062C6.30268 64.8405 6.38581 64.7708 6.88861 63.8639C8.43962 61.0671 6.20185 57.3392 3.82901 58.7666ZM104.962 58.6431C104.741 58.8478 103.78 60.4748 103.78 60.6432C103.78 60.7032 104.55 60.7187 105.492 60.6777L107.204 60.6031V61.1098C107.204 61.4319 107.065 61.7126 106.823 61.8799C106.614 62.0247 106.443 62.3006 106.443 62.4929C106.443 62.9161 106.165 62.8155 105.692 62.2212L105.353 61.7942L105.223 62.2736C105.113 62.6832 105.066 62.7158 104.903 62.4982C104.603 62.0987 104.35 62.1991 104.353 62.7164C104.359 63.7971 104.86 64.1348 106.458 64.1348C107.766 64.1348 108.451 63.0007 108.303 61.0798C108.194 59.6587 107.817 59.1092 106.702 58.7435C105.702 58.4159 105.236 58.389 104.962 58.6431ZM218.438 61.1889C219.612 62.1092 220.7 63.4167 221.1 64.3859C221.422 65.1672 221.421 65.1826 220.979 65.82C220.43 66.6106 219.639 67.0009 218.181 67.2015C217.568 67.2859 216.56 67.4532 215.942 67.5732C215.324 67.6934 214.607 67.7512 214.35 67.7017C213.911 67.6175 213.887 67.5635 213.967 66.8283C214.029 66.2558 214.483 65.2974 215.654 63.2712C216.535 61.7459 217.324 60.4979 217.406 60.4979C217.489 60.4979 217.953 60.8088 218.438 61.1889ZM35.7781 64.5372C34.5414 66.6762 32.7372 69.932 31.7691 71.7722C30.8008 73.6125 29.8697 75.3637 29.7 75.6637C29.5303 75.9638 29.4742 76.2092 29.5754 76.2092C29.6765 76.2092 29.9424 75.8982 30.1663 75.5182C30.9857 74.1273 38.1375 60.7326 38.0831 60.6909C38.0521 60.6674 37.0149 62.3981 35.7781 64.5372ZM12.2767 61.7531C12.2798 63.5949 13.1018 67.6877 13.5429 68.0574C13.7615 68.2407 13.7969 68.2203 13.7958 67.9119C13.7952 67.7148 13.6322 66.7024 13.4336 65.6623C13.2349 64.6221 13.0141 63.2017 12.9429 62.5058C12.86 61.696 12.7166 61.1787 12.5444 61.0695C12.3174 60.9256 12.2754 61.033 12.2767 61.7531ZM136.738 65.2327C139.585 65.7669 140.627 66.677 144.31 71.845C146.064 74.3058 146.57 75.0732 146.577 75.2866C146.581 75.4027 146.217 75.3704 145.406 75.1826C143.291 74.6929 140.855 74.5571 138.618 74.8039C135.364 75.1628 135.786 75.3403 139.654 75.2399C143.292 75.1455 144.55 75.2737 146.165 75.9036C148.688 76.8877 149.7 79.2815 148.456 81.3205C145.954 85.421 140.118 89.011 133.647 90.4297C131.445 90.9126 127.628 91.0443 125.863 90.6986C124.338 90.3996 122.945 89.7955 121.909 88.9833C120.888 88.1831 120.521 87.4971 120.521 86.3935C120.521 85.2846 121.002 84.2274 122.086 82.9508C123.968 80.7368 125.66 79.5115 128.701 78.16C129.486 77.8112 130.384 77.3628 130.698 77.1637C131.199 76.8458 131.222 76.801 130.885 76.7964C130.674 76.7935 129.432 77.2951 128.126 77.911C123.976 79.8682 122.099 81.5713 120.421 84.9014C120.129 85.4814 119.837 85.9561 119.772 85.9561C119.707 85.9561 118.348 83.9431 116.753 81.4827C114.765 78.4184 113.816 76.7961 113.738 76.3323C113.348 73.9952 116.199 70.7079 120.806 68.1834C122.719 67.1348 125.463 66.2542 128.933 65.5754C132.747 64.8293 134.239 64.7638 136.738 65.2327ZM96.9311 65.2509C96.9311 65.2875 96.503 65.9247 95.9799 66.6668C95.1411 67.8566 95.0293 68.1176 95.0333 68.8758C95.0412 70.4094 96.025 71.8391 98.223 73.5117C101.495 76.0016 106.289 77.723 110.975 78.0908C113.149 78.2614 113.522 78.3457 113.444 78.6487C113.32 79.1295 112.82 79.1787 110.72 78.9171C105.342 78.247 102.487 77.1858 98.0813 74.2196C97.0922 73.5536 96.2146 73.0088 96.1313 73.0088C95.4156 73.0088 97.8971 74.9864 99.8763 75.9935C103.7 77.9388 109.364 79.5141 112.75 79.5738C113.341 79.5843 113.908 79.6334 114.01 79.683C114.113 79.7328 114.986 80.9801 115.95 82.4551L117.704 85.1367L117.388 85.6555C115.902 88.0967 113.882 88.9331 109.487 88.9264C104.385 88.9184 98.8747 87.5924 94.8385 85.4012C93.1697 84.4953 90.413 82.3868 89.9193 81.6388C89.251 80.6263 88.6942 78.8499 88.8121 78.1077C88.9763 77.0761 89.8135 75.3358 91.43 72.6653C92.2467 71.3163 92.9568 70.1804 93.008 70.1413C93.1986 69.9955 93.464 70.2593 94.0629 71.1896C94.6088 72.0376 95.5564 72.9446 95.7453 72.8002C95.7834 72.7711 95.5574 72.3576 95.2429 71.8813C94.2714 70.4096 93.8391 69.2514 93.9845 68.51C94.2189 67.3147 96.0758 64.9333 96.6432 65.0997C96.8015 65.1463 96.9311 65.2142 96.9311 65.2509ZM113.764 67.7714C113.535 67.8379 113.196 68.2269 112.924 68.7365C112.296 69.911 111.563 70.7069 109.895 72.0268C109.111 72.647 108.574 73.1542 108.702 73.1542C109.437 73.1542 111.004 72.0792 112.096 70.8266C112.808 70.0099 114.328 67.7869 114.225 67.7141C114.182 67.6844 113.975 67.7101 113.764 67.7714ZM13.6683 69.0921C13.7996 69.9398 14.761 71.6281 14.8858 71.2302C14.9292 71.0921 14.793 70.5684 14.5832 70.0664C14.3731 69.5644 14.1517 68.9737 14.0908 68.7536C13.8877 68.0193 13.5447 68.2941 13.6683 69.0921ZM193.952 68.8444C193.952 68.8744 193.831 69.1611 193.684 69.4814C193.536 69.8019 193.355 70.4339 193.281 70.8858C193.187 71.4583 193.041 71.7507 192.801 71.849C192.249 72.0748 192.184 72.0226 192.304 71.4538C192.44 70.8144 193.574 68.79 193.797 68.79C193.882 68.79 193.952 68.8144 193.952 68.8444ZM195.774 70.0265L196.216 70.3175L195.512 71.4085C194.969 72.2507 194.706 72.5107 194.359 72.5483C194.111 72.5751 193.834 72.5398 193.742 72.4698C193.531 72.3083 194.01 70.1851 194.428 69.4283L194.741 68.8627L195.036 69.2992C195.198 69.5392 195.53 69.8665 195.774 70.0265ZM21.7232 69.4349C21.6661 69.5485 21.7428 69.7199 21.8934 69.8154C22.117 69.9573 22.1676 69.934 22.1676 69.6892C22.1676 69.3227 21.866 69.1502 21.7232 69.4349ZM97.2826 70.6516C99.2214 73.0579 100.831 74.1705 104.082 75.3511C107.126 76.4568 108.772 76.911 110.079 77.0059C112.9 77.2107 113.035 77.2347 112.633 77.4597C112.056 77.7821 110.903 77.7035 107.951 77.1404C104.933 76.5648 104.338 76.3496 101.401 74.7718C98.1933 73.0494 96.1701 71.1371 96.1701 69.8283C96.1701 69.5505 96.2017 69.3507 96.2401 69.384C96.2786 69.4174 96.7477 69.9877 97.2826 70.6516ZM21.9773 70.6644C21.9773 70.9582 22.129 71.1601 22.4824 71.3371C22.9687 71.5809 22.982 71.5802 22.8433 71.3175C22.7642 71.1675 22.6141 70.8649 22.51 70.6448C22.2627 70.1224 21.9773 70.133 21.9773 70.6644ZM14.6855 71.7602C14.5542 72.0216 15.1438 72.2073 15.3388 71.966C15.4187 71.8671 15.4419 71.734 15.3903 71.6701C15.2378 71.4813 14.7972 71.5376 14.6855 71.7602ZM23.0079 72.0543C23.3419 73.1029 25.4239 74.7628 26.3909 74.7516C26.5269 74.7501 26.274 74.5153 25.8289 74.23C25.3839 73.9446 24.7217 73.3677 24.3574 72.948C23.9929 72.5281 23.5097 72.0593 23.2831 71.9058L22.8716 71.6268L23.0079 72.0543ZM15.2271 72.7542C15.2977 73.0143 15.5718 73.3906 15.8363 73.5907L16.317 73.9544L16.2034 73.4822C16.076 72.9522 15.5612 72.2814 15.2821 72.2814C15.1756 72.2814 15.1524 72.4797 15.2271 72.7542ZM68.2569 73.0284C70.5704 73.9174 71.7318 74.5729 73.5385 76.0093C76.3477 78.2428 77.3366 79.6174 77.3366 81.2897C77.3366 82.865 76.1803 85.3483 75.1998 85.8781C74.9626 86.0064 74.3205 86.2117 73.773 86.3343C73.2257 86.4568 72.7284 86.6183 72.6679 86.693C72.5264 86.8682 73.6387 86.8686 74.4368 86.6936C74.8386 86.6055 75.0537 86.609 75.0537 86.7035C75.0537 86.9901 73.2362 89.6219 72.5759 90.2914C71.7706 91.1079 70.278 91.8272 68.5856 92.2147C67.148 92.5438 63.1971 93.1107 51.9398 94.6034C50.3703 94.8116 48.8722 95.0177 48.6106 95.0615C48.2714 95.1184 48.9074 94.5646 50.8273 93.1309C53.4562 91.1679 55.4982 89.2599 56.2746 88.0417C56.5301 87.6407 56.8272 87.4022 57.1537 87.3363C57.4249 87.2815 60.2306 87.204 63.3883 87.1641C68.1239 87.1043 69.148 87.0553 69.234 86.8841C69.323 86.7069 68.5015 86.6781 63.6337 86.6878C60.4961 86.6941 57.8526 86.6629 57.759 86.6187C57.6652 86.5745 57.9656 86.0324 58.4263 85.4142C58.8871 84.7959 59.264 84.231 59.264 84.1587C59.264 84.0866 59.6705 84.0634 60.1676 84.1074C60.6647 84.1514 63.083 84.1433 65.5418 84.0895C69.9806 83.9922 70.0189 83.9887 70.9109 83.5879C72.6111 82.8243 73.2782 81.2719 72.7067 79.4097C72.2287 77.8516 71.8318 77.3415 69.3466 75.0902C66.5071 72.5181 66.412 72.4269 66.5691 72.4269C66.6364 72.4269 67.3961 72.6976 68.2569 73.0284ZM65.6588 73.1525C67.7543 74.2385 70.1671 76.0872 70.9128 77.1781C72.2186 79.0889 72.5428 80.7825 71.8315 81.9805C71.2301 82.9932 69.8593 83.4161 68.3842 83.0436C67.7914 82.8941 67.6344 82.7822 67.6344 82.509C67.6344 82.1193 64.79 79.763 63.6944 79.2453C62.4337 78.6494 62.8172 79.1547 64.6266 80.4731C66.3577 81.7347 67.2517 82.5979 67.2532 83.0102C67.2547 83.3804 66.8313 83.1664 65.5955 82.1723C64.3688 81.1855 62.4038 80.0151 62.2155 80.1592C62.1647 80.1979 62.8037 80.739 63.6354 81.3617C65.0168 82.3957 65.5373 82.9532 65.2943 83.1388C65.082 83.3011 63.7182 82.7069 62.7491 82.0295C62.1756 81.6288 61.6256 81.3009 61.5267 81.3009C61.1321 81.3009 61.9431 82.1229 62.6725 82.4626C63.4901 82.8433 63.5274 82.8825 63.3037 83.1258C63.1667 83.2748 60.3571 83.204 60.1514 83.0464C60.0991 83.0063 60.3999 82.2207 60.8197 81.3007C61.9941 78.7273 63.4043 75.2721 63.8594 73.8531C64.0854 73.1487 64.3308 72.5723 64.4048 72.5723C64.4788 72.5723 65.043 72.8335 65.6588 73.1525ZM222.631 72.8869C222.343 72.9673 222.108 73.1022 222.108 73.1867C222.108 73.4203 224.206 73.2126 224.557 72.9442C224.824 72.7394 224.772 72.719 224.003 72.7293C223.536 72.7356 222.919 72.8066 222.631 72.8869ZM219.572 73.2152C219.483 73.3925 219.17 73.4452 218.208 73.4452C217.039 73.4452 215.815 73.6929 215.586 73.9759C215.53 74.0441 216.295 74.0646 217.286 74.0214C218.527 73.9675 219.138 73.8803 219.25 73.7411C219.366 73.5982 219.745 73.5494 220.545 73.5744C221.426 73.6019 221.702 73.5593 221.791 73.3819C221.882 73.2007 221.761 73.1538 221.198 73.1522C220.809 73.1512 220.31 73.1132 220.089 73.0678C219.825 73.0136 219.647 73.0641 219.572 73.2152ZM16.372 74.4999C16.4422 74.6798 16.7047 74.9894 16.9556 75.1876L17.4116 75.548V75.1836C17.4116 74.7364 16.921 74.1726 16.532 74.1726C16.3229 74.1726 16.2793 74.2619 16.372 74.4999ZM134.218 75.6273L133.552 75.9061L134.275 75.9122C134.917 75.9176 136.12 75.5873 136.12 75.4053C136.12 75.2263 134.811 75.379 134.218 75.6273ZM209.772 75.4811C208.652 75.6838 208.6 75.9183 209.676 75.9183C210.845 75.9183 211.996 75.6493 211.615 75.465C211.311 75.3173 210.646 75.3231 209.772 75.4811ZM207.126 75.9228C206.891 75.9952 206.698 76.1219 206.698 76.2046C206.698 76.4629 207.776 76.3684 208.247 76.0686L208.696 75.7826L208.125 75.7869C207.811 75.7892 207.362 75.8505 207.126 75.9228ZM204.282 76.6375C203.104 76.9618 201.752 77.5246 201.752 77.6907C201.752 77.8514 201.706 77.8589 203.395 77.4276C204.891 77.0457 206.318 76.556 206.318 76.4245C206.318 76.2667 205.207 76.3829 204.282 76.6375ZM205.391 78.9759C202.162 79.4948 199.823 80.1934 197.086 81.4556C193.443 83.136 190.606 85.2847 189.233 87.4033C188.557 88.4457 188.531 88.5451 188.531 90.0218C188.531 91.47 188.564 91.6021 189.121 92.357C191.197 95.1697 197.352 96.1878 203.728 94.7729C206.118 94.2426 207.13 93.8117 205.985 93.8117C205.653 93.8117 204.928 93.9486 204.375 94.1159C202.667 94.6328 200.266 94.969 198.261 94.9723C196.332 94.9757 194.766 94.6798 192.166 93.8209C190.751 93.3533 191.247 93.3063 193.031 93.7391C199.192 95.2335 205.625 93.9524 212.256 89.9107C215.363 88.0164 216.342 87.1913 217.366 85.604C218.304 84.1506 218.312 84.1436 218.237 84.8219C218.038 86.6226 214.662 89.7047 210.656 91.7418C209.354 92.4034 209.334 92.4227 209.825 92.5478C210.42 92.6994 210.285 92.7663 213.274 90.8295C215.819 89.1802 216.741 88.3039 217.971 86.3667C219.367 84.1683 219.518 83.4524 218.868 82.1238C218.218 80.7953 216.106 79.5018 213.566 78.8762C213.082 78.7571 211.67 78.6328 210.408 78.5985C208.404 78.544 207.791 78.5899 205.391 78.9759ZM195.837 79.8348C193.758 80.8922 191.86 82.0917 191.86 82.3473C191.86 82.5515 192.476 82.232 195.379 80.5231C198.346 78.7767 198.267 78.8278 198.015 78.8278C197.905 78.8278 196.925 79.2809 195.837 79.8348ZM214.023 80.0572C215.069 80.3598 215.959 80.6309 216 80.6598C216.125 80.7476 215.252 82.4862 214.624 83.398C214.265 83.9183 213.239 84.8921 212.029 85.8599L210.028 87.4612L211.169 86.9162C212.855 86.1113 214.573 84.5484 216.11 82.4207C216.503 81.8765 216.865 81.4622 216.915 81.5C217.127 81.6625 216.499 83.3426 215.894 84.229C214.691 85.9923 212.027 88.113 209.23 89.5324C206.966 90.6815 203.585 91.9044 201.805 92.2178C200.847 92.3865 199.951 92.6284 199.813 92.7556C199.589 92.9638 199.688 92.9779 200.815 92.8979C203.737 92.6907 208.291 90.9194 212.043 88.5311C213.76 87.4386 215.69 85.5548 216.649 84.0378C217.088 83.3428 217.523 82.77 217.616 82.7649C217.974 82.7453 217.52 84.3297 216.89 85.3014C215.656 87.2051 213.259 89.0458 209.742 90.7915C205.503 92.8961 201.622 93.8117 196.943 93.8117C195.098 93.8117 193.371 93.5624 193.794 93.3573C193.933 93.2896 194.92 93.2333 195.986 93.232C197.07 93.2308 197.977 93.1657 198.043 93.0844C198.191 92.9009 198.443 92.9293 195.569 92.8066C193.353 92.7122 192.942 92.6504 191.603 92.2118C190.246 91.7671 189.737 91.4588 190.012 91.2482C190.068 91.2054 190.742 91.3517 191.51 91.5733C192.786 91.9416 193.135 91.9768 195.569 91.9834C197.735 91.9891 198.357 91.943 198.899 91.7367L199.564 91.483L197.591 91.5436C195.025 91.6223 192.234 91.4152 191.23 91.0717C190.07 90.6747 189.668 90.2682 189.69 89.5119C189.723 88.359 190.107 88.1347 196.264 85.6693C199.335 84.4398 202.318 83.243 202.894 83.0101C203.491 82.768 204.715 82.0019 205.747 81.2235C208.111 79.4408 208.271 79.3799 210.408 79.4504C211.814 79.4968 212.46 79.6053 214.023 80.0572ZM201.741 81.8215C200.439 82.508 198.81 83.2892 198.12 83.5578C197.43 83.8262 196.42 84.2464 195.876 84.4917C194.934 84.9166 194.143 85.0685 194.143 84.8247C194.143 84.4962 194.965 83.9423 196.964 82.9247C200.792 80.976 201.799 80.6016 203.263 80.5837L204.108 80.5735L201.741 81.8215ZM29.8288 88.0877C29.343 88.6158 28.8259 89.3881 28.8259 89.5857C28.8259 89.681 29.4695 89.7384 30.538 89.7384H32.2502V91.2556V92.7727L31.6095 93.2922C31.2569 93.578 30.8864 93.8117 30.7855 93.8117C30.6849 93.8117 30.3259 93.5171 29.9877 93.1571C29.3258 92.4524 28.9062 92.2935 29.1225 92.8298C29.3993 93.5158 29.7904 93.9397 30.422 94.2383L31.076 94.5474L31.7847 94.1795C32.1747 93.9773 32.5555 93.8117 32.6312 93.8117C32.7069 93.8117 32.9183 93.4483 33.1009 93.0043C33.5543 91.9022 33.4607 89.2626 32.947 88.6631C32.6012 88.2595 31.7512 87.9091 30.7443 87.7552C30.3088 87.6885 30.1393 87.7501 29.8288 88.0877ZM207.543 88.6554C207.189 88.8727 207.191 88.8753 207.602 88.723C207.837 88.6357 208.03 88.5339 208.03 88.4968C208.03 88.3855 207.931 88.4177 207.543 88.6554ZM204.225 90.0198C204.068 90.0896 203.041 90.3856 201.942 90.6776C199.472 91.3338 199.148 91.5379 200.706 91.455C201.645 91.4051 202.083 91.2822 203.179 90.7604C203.911 90.4117 204.592 90.0718 204.691 90.0052C204.933 89.8432 204.599 89.8536 204.225 90.0198ZM198.458 92.8481C198.399 92.9662 198.549 93.1148 198.825 93.2108C199.208 93.3442 199.313 93.3317 199.408 93.1415C199.524 92.9112 199.193 92.6545 198.776 92.6501C198.657 92.6489 198.514 92.738 198.458 92.8481Z" fill="#939597"/>
</svg>
