<svg width="55" height="76" viewBox="0 0 55 76" fill="none" xmlns="http://www.w3.org/2000/svg">
<path d="M45.4355 21.817C45.4355 28.395 42.4416 34.3201 37.8144 38.1457L25.0219 42.8111L12.2295 38.1457C7.60224 34.3201 4.6084 28.395 4.6084 21.817C4.6084 10.2468 13.772 0.822998 25.0219 0.822998C36.2719 0.822998 45.4355 10.2468 45.4355 21.817Z" fill="#F2F2F2"/>
<path d="M45.4355 38.1458V47.4764L30.2487 52.1418L13.6811 47.4764H4.6084V38.1458H12.2295L25.0219 42.8111L37.8144 38.1458H45.4355Z" fill="#C5C5C5"/>
<path d="M54.5087 56.807H40.8997L26.8468 61.4723L13.6816 56.807V47.4763H54.5087V56.807Z" fill="#F2F2F2"/>
<path d="M40.8994 66.1376L23.4444 70.8029L4.60861 66.1376H0.0722656V56.8069H40.8994V66.1376Z" fill="#C5C5C5"/>
<path d="M4.6084 66.1377H45.4355V75.4684H4.6084V66.1377Z" fill="#F2F2F2"/>
<path d="M37.8155 38.1458C34.3223 41.0849 29.8769 42.8111 25.023 42.8111C20.1691 42.8111 15.7235 41.0849 12.2305 38.1458H37.8155Z" fill="#9B9B9B"/>
<path d="M21.4614 43.3098H17.6946V38.0943H21.4614V35.0518H17.6946V29.5465H21.4614V16.411H33.6793C36.7056 16.411 39.1685 17.2481 41.068 18.9222C42.9997 20.5964 43.9656 22.8661 43.9656 25.7314C43.9656 27.6309 43.5148 29.289 42.6134 30.7055C41.7441 32.1221 40.5207 33.2006 38.9432 33.9411C37.3978 34.6816 35.6432 35.0518 33.6793 35.0518H27.9808V38.0943H40.1505V43.3098H27.9808V48.2839H21.4614V43.3098ZM33.2447 29.5465C34.5003 29.5465 35.5144 29.2246 36.2871 28.5807C37.0598 27.9046 37.4461 26.9709 37.4461 25.7797C37.4461 24.5885 37.0598 23.6549 36.2871 22.9788C35.5144 22.2705 34.5003 21.9163 33.2447 21.9163H27.9808V29.5465H33.2447Z" fill="#C5C5C5"/>
</svg>
