<svg width="29" height="35" viewBox="0 0 29 35" fill="none" xmlns="http://www.w3.org/2000/svg">
<path d="M27.5714 14.5595C27.5714 24.9459 14.2857 33.8486 14.2857 33.8486C14.2857 33.8486 1 24.9459 1 14.5595C1 11.0178 2.39974 7.6212 4.89129 5.11685C7.38285 2.6125 10.7621 1.20557 14.2857 1.20557C17.8093 1.20557 21.1886 2.6125 23.6801 5.11685C26.1717 7.6212 27.5714 11.0178 27.5714 14.5595Z" stroke="#C82132" stroke-width="2" stroke-linecap="round" stroke-linejoin="round"/>
<path d="M14.286 19.0108C16.7319 19.0108 18.7146 17.0179 18.7146 14.5595C18.7146 12.1011 16.7319 10.1082 14.286 10.1082C11.8402 10.1082 9.85742 12.1011 9.85742 14.5595C9.85742 17.0179 11.8402 19.0108 14.286 19.0108Z" stroke="#C82132" stroke-width="2" stroke-linecap="round" stroke-linejoin="round"/>
</svg>
