<svg width="72" height="75" viewBox="0 0 72 75" fill="none" xmlns="http://www.w3.org/2000/svg">
<g clip-path="url(#clip0_217_5444)">
<path d="M62.5885 24.6776L58.5955 20.3404L59.2236 14.4345L53.9297 11.9889L52.2697 6.31374L46.5269 6.12933L42.8479 1.51525L37.464 3.63758L32.3943 0.822998L28.1772 4.92952L22.4344 4.28355L20.0564 9.72816L14.5381 11.4354L14.3587 17.3415L9.87219 21.1251L11.9358 26.6617L9.19922 31.8756L13.1922 36.2128L12.5641 42.1189L17.858 44.5643L19.518 50.2399L25.2609 50.4243L26.9209 52.5006L36.0611 47.5105L44.8669 51.7622L49.3533 52.27L51.7313 46.8252L57.2496 45.118L57.429 39.2121L61.9155 35.4285L59.8519 29.8917L62.5885 24.6776Z" fill="#FFFA50"/>
<path d="M26.9209 52.5006V74.6482L35.8939 70.0341L44.8669 74.6482V51.7622L36.0611 47.5105L26.9209 52.5006Z" fill="#FFCE33"/>
<path d="M35.8942 9.82031C25.9789 9.82031 17.9482 18.0794 17.9482 28.2766C17.9482 35.1053 21.5823 40.9653 26.9212 44.1952V52.5005L28.9402 55.0382L34.3239 52.9156L39.3937 55.7303L43.6107 51.6238L44.8671 51.7621V44.1952C50.206 40.9653 53.8401 35.1053 53.8401 28.2766C53.8402 18.0795 45.8095 9.82031 35.8942 9.82031ZM40.2014 29.707L41.1883 35.7514L35.8942 32.937L30.6002 35.7515L31.587 29.7071L27.3697 25.416L33.247 24.4932L35.8942 19.0485L38.5414 24.4931L44.4187 25.4159L40.2014 29.707Z" fill="#FFA65C"/>
</g>
<defs>
<clipPath id="clip0_217_5444">
<rect width="71.7839" height="73.8252" fill="white" transform="translate(0 0.822998)"/>
</clipPath>
</defs>
</svg>
