<svg width="62" height="65" viewBox="0 0 62 65" fill="none" xmlns="http://www.w3.org/2000/svg">
<g clip-path="url(#clip0_313_374)">
<path d="M53.6887 31.9293C53.6887 51.0331 43.5344 64.6141 31.0001 64.6141C18.4659 64.6141 8.31152 51.0331 8.31152 31.9293C8.31152 18.8002 18.4659 8.15625 31.0001 8.15625C43.5344 8.15625 53.6887 18.8002 53.6887 31.9293Z" fill="#40596B"/>
<path d="M39.2134 28.5279C40.0556 29.6074 40.678 32.6198 40.678 32.6198C40.678 32.6198 36.9067 29.8082 30.5969 28.5279C26.0323 27.5991 20.5158 20.3567 20.5158 20.3567C19.393 33.5612 10.7398 36.1594 8.51855 36.6238C10.0441 53.2172 19.515 64.6143 30.9997 64.6143C43.0091 64.6143 52.8339 52.1503 53.6272 34.3017C49.5752 30.5111 39.2134 28.5279 39.2134 28.5279Z" fill="#FFD15C"/>
<path d="M8.61654 28.0134H4.1374C1.85512 28.0134 0 29.9464 0 32.3438V38.7703C0 41.1677 1.85512 43.1007 4.1374 43.1007H9.5685C8.75079 39.6615 8.31142 35.9211 8.31142 31.9296C8.31142 30.5865 8.40905 29.2812 8.61654 28.0134Z" fill="#334A5E"/>
<path d="M57.8627 28.0134H53.3836C53.5789 29.2812 53.6887 30.5865 53.6887 31.9296C53.6887 35.9211 53.2494 39.6615 52.4316 43.1007H57.8627C60.145 43.1007 62.0001 41.1677 62.0001 38.7703V32.3438C62.0001 29.9464 60.1572 28.0134 57.8627 28.0134Z" fill="#334A5E"/>
<path d="M57.8627 43.1006H55.8001V49.0752H36.5166V53.4056H59.9253V42.5232C59.3272 42.8872 58.6194 43.1006 57.8627 43.1006Z" fill="#F2F2F2"/>
<path d="M37.1267 54.9495H28.0952C27.9121 54.9495 27.7656 54.7989 27.7656 54.6106V47.8828C27.7656 47.6946 27.9121 47.5439 28.0952 47.5439H37.1267C37.3097 47.5439 37.4562 47.6946 37.4562 47.8828V54.6106C37.4562 54.7989 37.3097 54.9495 37.1267 54.9495Z" fill="#40596B"/>
<path d="M32.6602 0.851318H28.6815C14.048 0.851318 2.14842 13.2901 2.0752 28.5907C2.68543 28.2267 3.3811 28.0134 4.13779 28.0134H6.2248C6.59094 15.3612 16.5256 5.18168 28.6937 5.18168H32.6602C44.8283 5.18168 54.763 15.3612 55.1291 28.0134H57.8752C58.3634 28.0134 58.8272 28.1012 59.2665 28.2644C59.0224 13.1144 47.1839 0.851318 32.6602 0.851318Z" fill="#F2F2F2"/>
</g>
<defs>
<clipPath id="clip0_313_374">
<rect width="62" height="63.763" fill="white" transform="translate(0 0.851318)"/>
</clipPath>
</defs>
</svg>
