<svg width="32" height="32" viewBox="0 0 32 32" fill="none" xmlns="http://www.w3.org/2000/svg">
<path d="M30.3586 23.359V27.8103C30.3603 28.2235 30.2761 28.6326 30.1114 29.0112C29.9467 29.3898 29.7051 29.7297 29.4022 30.0091C29.0992 30.2884 28.7416 30.5011 28.3521 30.6335C27.9627 30.7659 27.55 30.815 27.1406 30.7778C22.5981 30.2817 18.2347 28.7216 14.401 26.2227C10.8343 23.9446 7.81034 20.9051 5.54389 17.32C3.04909 13.4492 1.49653 9.04205 1.01198 4.45572C0.975093 4.0454 1.02361 3.63187 1.15443 3.24143C1.28526 2.851 1.49554 2.49222 1.77187 2.18795C2.04821 1.88367 2.38455 1.64057 2.75948 1.47411C3.13441 1.30765 3.53972 1.22148 3.9496 1.22109H8.37817C9.09458 1.214 9.7891 1.469 10.3323 1.93854C10.8755 2.40809 11.2303 3.06015 11.3306 3.77318C11.5175 5.1977 11.8641 6.59639 12.3639 7.94258C12.5625 8.47366 12.6055 9.05083 12.4877 9.60571C12.37 10.1606 12.0965 10.6699 11.6996 11.0733L9.82484 12.9577C11.9263 16.6724 14.9863 19.7481 18.682 21.8604L20.5567 19.976C20.9581 19.577 21.4648 19.3021 22.0169 19.1838C22.5689 19.0654 23.1431 19.1086 23.6715 19.3083C25.0108 19.8106 26.4024 20.159 27.8196 20.3469C28.5367 20.4486 29.1916 20.8116 29.6597 21.367C30.1279 21.9224 30.3766 22.6313 30.3586 23.359Z" stroke="#C82132" stroke-width="2" stroke-linecap="round" stroke-linejoin="round"/>
</svg>
