<svg width="32" height="27" viewBox="0 0 32 27" fill="none" xmlns="http://www.w3.org/2000/svg">
<path d="M30.3586 19.306V22.8863C30.3603 23.2187 30.2761 23.5477 30.1114 23.8522C29.9467 24.1567 29.7051 24.4301 29.4022 24.6548C29.0992 24.8795 28.7416 25.0506 28.3521 25.1571C27.9627 25.2635 27.55 25.3031 27.1406 25.2732C22.5981 24.8741 18.2347 23.6192 14.401 21.6093C10.8343 19.777 7.81034 17.3322 5.54389 14.4486C3.04909 11.3352 1.49653 7.79039 1.01198 4.10146C0.975093 3.77143 1.02361 3.43881 1.15443 3.12477C1.28526 2.81074 1.49554 2.52216 1.77187 2.27742C2.04821 2.03269 2.38455 1.83715 2.75948 1.70326C3.13441 1.56937 3.53972 1.50006 3.9496 1.49975H8.37817C9.09458 1.49405 9.7891 1.69915 10.3323 2.07682C10.8755 2.45449 11.2303 2.97896 11.3306 3.55248C11.5175 4.69826 11.8641 5.82328 12.3639 6.90606C12.5625 7.33322 12.6055 7.79746 12.4877 8.24377C12.37 8.69007 12.0965 9.09974 11.6996 9.42423L9.82484 10.9399C11.9263 13.9277 14.9863 16.4016 18.682 18.1006L20.5567 16.5849C20.9581 16.264 21.4648 16.0429 22.0169 15.9477C22.5689 15.8525 23.1431 15.8873 23.6715 16.0478C25.0108 16.4519 26.4024 16.7321 27.8196 16.8833C28.5367 16.965 29.1916 17.2571 29.6597 17.7037C30.1279 18.1504 30.3766 18.7207 30.3586 19.306Z" stroke="#C82132" stroke-width="2" stroke-linecap="round" stroke-linejoin="round"/>
</svg>
